<?xml version="1.0" encoding="UTF-8"?><svg id="a" xmlns="http://www.w3.org/2000/svg" viewBox="0 0 1920 1080"><path d="m656.12,405.12c-.54,2.37-.85,4.37-.91,6-1.28-1.12-2.55-1.87-3.82-2.26-1.26-.38-2.95-.58-5.06-.58-3.55,0-6.32,1.15-8.3,3.46-1.98,2.3-2.98,5.17-2.98,8.59s1.03,6.19,3.1,8.5c2.06,2.3,4.81,3.46,8.23,3.46s6.26-.93,8.5-2.78c.1,2.5.27,4.43.53,5.81-1.22,1.18-2.56,2.02-4.03,2.5-1.47.48-3.26.72-5.38.72-4.93,0-9.02-1.79-12.26-5.38-3.25-3.58-4.87-7.9-4.87-12.96s1.58-9.52,4.75-13.01c3.17-3.49,7.34-5.23,12.53-5.23,4.45,0,7.78,1.06,9.98,3.17Z" style="fill:#1d1d1b;"/><path d="m682.85,425.38c0,4-1.12,7.24-3.36,9.72-2.24,2.48-5.22,3.72-8.93,3.72s-6.69-1.25-8.93-3.74c-2.24-2.5-3.36-5.76-3.36-9.79s1.14-7.04,3.41-9.41c2.27-2.37,5.23-3.55,8.88-3.55s6.61,1.18,8.88,3.55c2.27,2.37,3.41,5.54,3.41,9.5Zm-5.95,0c0-2.3-.53-4.07-1.58-5.3-1.06-1.23-2.62-1.85-4.7-1.85s-3.66.62-4.75,1.87c-1.09,1.25-1.63,3.01-1.63,5.28s.54,4.06,1.63,5.47c1.09,1.41,2.66,2.11,4.7,2.11s3.62-.7,4.7-2.11c1.09-1.41,1.63-3.23,1.63-5.47Z" style="fill:#1d1d1b;"/><path d="m709.64,437.95c-1.09-.06-2.11-.1-3.07-.1l-3.41.1c.13-4.26.19-8.48.19-12.67,0-2.66-.24-4.42-.72-5.28-.48-.86-1.68-1.3-3.6-1.3s-3.55.64-4.7,1.92c.1,1.12.14,3.49.14,7.1,0,4.38.06,7.79.19,10.22-1.09-.06-2.24-.1-3.46-.1l-3.02.1c.1-2.78.14-6.35.14-10.7,0-6.11-.06-10.78-.19-14.02.83.06,1.73.1,2.69.1l2.78-.1c.16,1.28.26,2.64.29,4.08l.19.05c.8-1.57,1.72-2.75,2.76-3.55,1.04-.8,2.44-1.2,4.2-1.2,1.5,0,2.79.22,3.86.65,1.07.43,1.9.98,2.47,1.63.58.66,1.03,1.54,1.37,2.66.34,1.12.54,2.17.62,3.14.08.98.12,2.2.12,3.67,0,4.45.05,8.98.14,13.58Z" style="fill:#1d1d1b;"/><path d="m730.8,419.52c-.26-.03-1.38-.1-3.36-.19-1.98-.1-3.33-.26-4.03-.48l-.14.19c.38,2.11.58,5.07.58,8.88,0,1.95.22,3.18.67,3.7.45.51,1.54.77,3.26.77,1.09,0,2-.06,2.74-.19-.03.48-.05,1.31-.05,2.5,0,.32.08,1.33.24,3.02-1.63.45-3.46.67-5.47.67-2.66,0-4.58-.67-5.76-2.02-1.18-1.34-1.78-3.47-1.78-6.38,0-4.03.26-7.7.77-10.99l-.14-.1c-.45.16-1,.28-1.66.36-.66.08-1.35.14-2.09.17-.74.03-1.22.06-1.44.1.1-1.22.14-2.21.14-2.98,0-1.22-.05-2.27-.14-3.17.22.03,1.07.07,2.54.12,1.47.05,2.43.14,2.88.26l.1-.05c-.1-.29-.17-.73-.22-1.32-.05-.59-.1-1.33-.14-2.21-.05-.88-.07-1.43-.07-1.66,2.4-.06,4.34-.26,5.81-.58-.06.48-.12,1.38-.17,2.69-.05,1.31-.15,2.34-.31,3.07l.14.1c.51-.16,1.75-.26,3.72-.31,1.97-.05,3.1-.09,3.38-.12-.1.86-.14,1.97-.14,3.31,0,.74.05,1.68.14,2.83Z" style="fill:#1d1d1b;"/><path d="m756.92,427.82h-12.24c-2.27,0-3.79-.1-4.56-.29.38,3.52,2.7,5.28,6.96,5.28,3.49,0,6.08-.48,7.78-1.44,0,1.89.16,3.54.48,4.94-1.86,1.47-4.67,2.21-8.45,2.21-3.97,0-7.1-1.15-9.41-3.46s-3.46-5.49-3.46-9.55,1.07-7.12,3.22-9.55c2.14-2.43,5.02-3.65,8.64-3.65,7.36,0,11.04,4.51,11.04,13.54v1.97Zm-5.95-3.89c0-2.14-.38-3.66-1.15-4.54-.77-.88-2.11-1.32-4.03-1.32-3.87,0-5.81,1.97-5.81,5.9,1.7-.22,3.62-.34,5.76-.34,1.95,0,3.7.1,5.23.29Z" style="fill:#1d1d1b;"/><path d="m783.7,437.95c-1.09-.06-2.11-.1-3.07-.1l-3.41.1c.13-4.26.19-8.48.19-12.67,0-2.66-.24-4.42-.72-5.28-.48-.86-1.68-1.3-3.6-1.3s-3.55.64-4.7,1.92c.1,1.12.14,3.49.14,7.1,0,4.38.06,7.79.19,10.22-1.09-.06-2.24-.1-3.46-.1l-3.02.1c.1-2.78.14-6.35.14-10.7,0-6.11-.06-10.78-.19-14.02.83.06,1.73.1,2.69.1l2.78-.1c.16,1.28.26,2.64.29,4.08l.19.05c.8-1.57,1.72-2.75,2.76-3.55,1.04-.8,2.44-1.2,4.2-1.2,1.5,0,2.79.22,3.86.65,1.07.43,1.9.98,2.47,1.63.58.66,1.03,1.54,1.37,2.66.34,1.12.54,2.17.62,3.14.08.98.12,2.2.12,3.67,0,4.45.05,8.98.14,13.58Z" style="fill:#1d1d1b;"/><path d="m804.87,419.52c-.26-.03-1.38-.1-3.36-.19-1.98-.1-3.33-.26-4.03-.48l-.14.19c.38,2.11.58,5.07.58,8.88,0,1.95.22,3.18.67,3.7.45.51,1.54.77,3.26.77,1.09,0,2-.06,2.74-.19-.03.48-.05,1.31-.05,2.5,0,.32.08,1.33.24,3.02-1.63.45-3.46.67-5.47.67-2.66,0-4.58-.67-5.76-2.02-1.18-1.34-1.78-3.47-1.78-6.38,0-4.03.26-7.7.77-10.99l-.14-.1c-.45.16-1,.28-1.66.36-.66.08-1.35.14-2.09.17-.74.03-1.22.06-1.44.1.1-1.22.14-2.21.14-2.98,0-1.22-.05-2.27-.14-3.17.22.03,1.07.07,2.54.12,1.47.05,2.43.14,2.88.26l.1-.05c-.1-.29-.17-.73-.22-1.32-.05-.59-.1-1.33-.14-2.21-.05-.88-.07-1.43-.07-1.66,2.4-.06,4.34-.26,5.81-.58-.06.48-.12,1.38-.17,2.69-.05,1.31-.15,2.34-.31,3.07l.14.1c.51-.16,1.75-.26,3.72-.31,1.97-.05,3.1-.09,3.38-.12-.1.86-.14,1.97-.14,3.31,0,.74.05,1.68.14,2.83Z" style="fill:#1d1d1b;"/><path d="m838.47,415.2c-.35,1.12-.61,2.99-.77,5.62-.86-.86-1.75-1.46-2.66-1.78-.91-.32-2.1-.48-3.58-.48-2.21,0-3.92.62-5.14,1.85-1.22,1.23-1.82,2.9-1.82,5.02s.62,3.85,1.85,5.11c1.23,1.26,2.94,1.9,5.11,1.9,2.46,0,4.5-.67,6.1-2.02,0,1.95.18,3.81.53,5.57-1.76,1.7-4.08,2.54-6.96,2.54-3.84,0-6.91-1.24-9.22-3.72-2.3-2.48-3.46-5.64-3.46-9.48s1.16-6.82,3.48-9.24c2.32-2.42,5.43-3.62,9.34-3.62,3.3,0,5.7.91,7.2,2.74Z" style="fill:#1d1d1b;"/><path d="m862.66,437.95c-1.02-.06-1.86-.1-2.5-.1-.26,0-1.15.03-2.69.1-.32-1.57-.5-2.88-.53-3.94h-.19c-.51,1.6-1.28,2.78-2.3,3.55-1.02.77-2.46,1.15-4.32,1.15-2.53,0-4.52-.66-5.98-1.97-1.46-1.31-2.18-3.15-2.18-5.52,0-2.85,1.05-4.88,3.14-6.1,2.1-1.22,5.35-1.82,9.77-1.82h1.2v-1.25c0-1.47-.34-2.46-1.03-2.95-.69-.5-1.99-.74-3.91-.74-3.68,0-6.22.91-7.63,2.74l-.1-.1c-.13-2.3-.34-3.97-.62-4.99,1.7-2.4,4.62-3.6,8.78-3.6,3.65,0,6.31.8,7.99,2.4,1.68,1.6,2.52,4.13,2.52,7.58v9.07c0,2.11.19,4.27.58,6.48Zm-6.58-6.48v-4.18c-.26.06-1.54.16-3.84.29-1.6.1-2.74.37-3.43.82-.69.45-1.03,1.18-1.03,2.21s.3,1.71.89,2.16c.59.45,1.54.67,2.86.67,2.11,0,3.63-.66,4.56-1.97Z" style="fill:#1d1d1b;"/><path d="m889.92,437.95c-1.09-.06-2.11-.1-3.07-.1l-3.41.1c.13-4.26.19-8.48.19-12.67,0-2.66-.24-4.42-.72-5.28-.48-.86-1.68-1.3-3.6-1.3s-3.55.64-4.7,1.92c.1,1.12.14,3.49.14,7.1,0,4.38.06,7.79.19,10.22-1.09-.06-2.24-.1-3.46-.1l-3.02.1c.1-2.78.14-6.35.14-10.7,0-6.11-.06-10.78-.19-14.02.83.06,1.73.1,2.69.1l2.78-.1c.16,1.28.26,2.64.29,4.08l.19.05c.8-1.57,1.72-2.75,2.76-3.55,1.04-.8,2.44-1.2,4.2-1.2,1.5,0,2.79.22,3.86.65,1.07.43,1.9.98,2.47,1.63.58.66,1.03,1.54,1.37,2.66.34,1.12.54,2.17.62,3.14.08.98.12,2.2.12,3.67,0,4.45.05,8.98.14,13.58Z" style="fill:#1d1d1b;"/><path d="m917.62,437.95c-1.09-.06-2.11-.1-3.07-.1l-3.41.1c.13-4.26.19-8.48.19-12.67,0-2.66-.24-4.42-.72-5.28-.48-.86-1.68-1.3-3.6-1.3s-3.55.64-4.7,1.92c.1,1.12.14,3.49.14,7.1,0,4.38.06,7.79.19,10.22-1.09-.06-2.24-.1-3.46-.1l-3.02.1c.1-2.78.14-6.35.14-10.7,0-6.11-.06-10.78-.19-14.02.83.06,1.73.1,2.69.1l2.78-.1c.16,1.28.26,2.64.29,4.08l.19.05c.8-1.57,1.72-2.75,2.76-3.55,1.04-.8,2.44-1.2,4.2-1.2,1.5,0,2.79.22,3.86.65,1.07.43,1.9.98,2.47,1.63.58.66,1.03,1.54,1.37,2.66.34,1.12.54,2.17.62,3.14.08.98.12,2.2.12,3.67,0,4.45.05,8.98.14,13.58Z" style="fill:#1d1d1b;"/><path d="m947.23,425.38c0,4-1.12,7.24-3.36,9.72-2.24,2.48-5.22,3.72-8.93,3.72s-6.69-1.25-8.93-3.74c-2.24-2.5-3.36-5.76-3.36-9.79s1.14-7.04,3.41-9.41c2.27-2.37,5.23-3.55,8.88-3.55s6.61,1.18,8.88,3.55c2.27,2.37,3.41,5.54,3.41,9.5Zm-5.95,0c0-2.3-.53-4.07-1.58-5.3-1.06-1.23-2.62-1.85-4.7-1.85s-3.66.62-4.75,1.87c-1.09,1.25-1.63,3.01-1.63,5.28s.54,4.06,1.63,5.47c1.09,1.41,2.66,2.11,4.7,2.11s3.62-.7,4.7-2.11c1.09-1.41,1.63-3.23,1.63-5.47Z" style="fill:#1d1d1b;"/><path d="m967.73,419.52c-.26-.03-1.38-.1-3.36-.19-1.98-.1-3.33-.26-4.03-.48l-.14.19c.38,2.11.58,5.07.58,8.88,0,1.95.22,3.18.67,3.7.45.51,1.54.77,3.26.77,1.09,0,2-.06,2.74-.19-.03.48-.05,1.31-.05,2.5,0,.32.08,1.33.24,3.02-1.63.45-3.46.67-5.47.67-2.66,0-4.58-.67-5.76-2.02-1.18-1.34-1.78-3.47-1.78-6.38,0-4.03.26-7.7.77-10.99l-.14-.1c-.45.16-1,.28-1.66.36-.66.08-1.35.14-2.09.17-.74.03-1.22.06-1.44.1.1-1.22.14-2.21.14-2.98,0-1.22-.05-2.27-.14-3.17.22.03,1.07.07,2.54.12,1.47.05,2.43.14,2.88.26l.1-.05c-.1-.29-.17-.73-.22-1.32-.05-.59-.1-1.33-.14-2.21-.05-.88-.07-1.43-.07-1.66,2.4-.06,4.34-.26,5.81-.58-.06.48-.12,1.38-.17,2.69-.05,1.31-.15,2.34-.31,3.07l.14.1c.51-.16,1.75-.26,3.72-.31s3.1-.09,3.38-.12c-.1.86-.14,1.97-.14,3.31,0,.74.05,1.68.14,2.83Z" style="fill:#1d1d1b;"/><path d="m1006.66,425.33c0,3.71-1.19,6.89-3.58,9.53-2.38,2.64-5.42,3.96-9.1,3.96-2.5,0-4.43-.24-5.81-.72l-5.57-1.87c.06-3.97.1-8.27.1-12.91,0-9.89-.1-16.85-.29-20.88,1.86.06,2.93.1,3.22.1,1.31,0,2.45-.03,3.41-.1-.13,3.33-.19,5.84-.19,7.54,0,2.88-.06,4.96-.19,6.24l.14.05c1.63-2.62,3.98-3.94,7.06-3.94,3.42,0,6.08,1.1,7.97,3.31,1.89,2.21,2.83,5.44,2.83,9.7Zm-6.14.05c0-2.4-.48-4.16-1.44-5.28-.96-1.12-2.46-1.68-4.51-1.68-2.43,0-4.37.64-5.81,1.92.06,1.06.1,2.83.1,5.33,0,3.26-.05,5.42-.14,6.48,1.92.48,3.68.72,5.28.72,2.02,0,3.61-.68,4.78-2.04,1.17-1.36,1.75-3.18,1.75-5.45Z" style="fill:#1d1d1b;"/><path d="m1033.54,427.82h-12.24c-2.27,0-3.79-.1-4.56-.29.38,3.52,2.7,5.28,6.96,5.28,3.49,0,6.08-.48,7.78-1.44,0,1.89.16,3.54.48,4.94-1.86,1.47-4.67,2.21-8.45,2.21-3.97,0-7.1-1.15-9.41-3.46-2.3-2.3-3.46-5.49-3.46-9.55s1.07-7.12,3.22-9.55c2.14-2.43,5.02-3.65,8.64-3.65,7.36,0,11.04,4.51,11.04,13.54v1.97Zm-5.95-3.89c0-2.14-.38-3.66-1.15-4.54-.77-.88-2.11-1.32-4.03-1.32-3.87,0-5.81,1.97-5.81,5.9,1.7-.22,3.62-.34,5.76-.34,1.95,0,3.7.1,5.23.29Z" style="fill:#1d1d1b;"/><path d="m1055.9,402.43c-.19,4.35-.29,11.87-.29,22.56,0,4.29.08,8.61.24,12.96-.9-.06-1.98-.1-3.26-.1-1.47,0-2.62.03-3.46.1.19-5.28.29-9.6.29-12.96,0-11.39-.1-18.91-.29-22.56,1.22.06,2.32.1,3.31.1,1.7,0,2.85-.03,3.46-.1Z" style="fill:#1d1d1b;"/><path d="m1086.05,425.38c0,4-1.12,7.24-3.36,9.72-2.24,2.48-5.22,3.72-8.93,3.72s-6.69-1.25-8.93-3.74c-2.24-2.5-3.36-5.76-3.36-9.79s1.13-7.04,3.41-9.41c2.27-2.37,5.23-3.55,8.88-3.55s6.61,1.18,8.88,3.55c2.27,2.37,3.41,5.54,3.41,9.5Zm-5.95,0c0-2.3-.53-4.07-1.58-5.3-1.06-1.23-2.62-1.85-4.7-1.85s-3.67.62-4.75,1.87c-1.09,1.25-1.63,3.01-1.63,5.28s.54,4.06,1.63,5.47c1.09,1.41,2.66,2.11,4.7,2.11s3.62-.7,4.7-2.11c1.09-1.41,1.63-3.23,1.63-5.47Z" style="fill:#1d1d1b;"/><path d="m1110.82,437.95c-1.02-.06-1.86-.1-2.5-.1-.26,0-1.15.03-2.69.1-.32-1.57-.5-2.88-.53-3.94h-.19c-.51,1.6-1.28,2.78-2.3,3.55-1.02.77-2.46,1.15-4.32,1.15-2.53,0-4.52-.66-5.98-1.97-1.46-1.31-2.18-3.15-2.18-5.52,0-2.85,1.05-4.88,3.14-6.1,2.1-1.22,5.35-1.82,9.77-1.82h1.2v-1.25c0-1.47-.34-2.46-1.03-2.95-.69-.5-1.99-.74-3.91-.74-3.68,0-6.22.91-7.63,2.74l-.1-.1c-.13-2.3-.34-3.97-.62-4.99,1.7-2.4,4.62-3.6,8.78-3.6,3.65,0,6.31.8,7.99,2.4,1.68,1.6,2.52,4.13,2.52,7.58v9.07c0,2.11.19,4.27.58,6.48Zm-6.58-6.48v-4.18c-.26.06-1.54.16-3.84.29-1.6.1-2.74.37-3.43.82-.69.45-1.03,1.18-1.03,2.21s.29,1.71.89,2.16c.59.45,1.54.67,2.86.67,2.11,0,3.63-.66,4.56-1.97Z" style="fill:#1d1d1b;"/><path d="m1139.9,402.43c-.22,6.43-.34,13.46-.34,21.07,0,4.64.06,9.46.19,14.45-1.28-.06-2.08-.1-2.4-.1-.38,0-1.34.03-2.88.1-.19-1.44-.29-2.86-.29-4.27h-.19c-.7,1.7-1.57,2.98-2.59,3.84-1.02.86-2.51,1.3-4.46,1.3-3.39,0-6.16-1.3-8.3-3.89-2.14-2.59-3.22-5.76-3.22-9.5,0-4.03,1.03-7.22,3.1-9.58,2.06-2.35,4.82-3.53,8.28-3.53,3.07,0,5.28,1.23,6.62,3.7l.14-.1c-.13-.64-.19-2.85-.19-6.62s-.05-6.22-.14-6.86c1.34.06,2.54.1,3.6.1,1.15,0,2.18-.03,3.07-.1Zm-6.38,27.98c-.1-1.25-.14-2.94-.14-5.09,0-1.82.05-3.5.14-5.04-.7-.7-1.5-1.19-2.38-1.46-.88-.27-2.04-.41-3.48-.41-1.98,0-3.5.62-4.54,1.85-1.04,1.23-1.56,2.94-1.56,5.11s.55,4.02,1.66,5.35c1.1,1.33,2.66,1.99,4.68,1.99,2.43,0,4.3-.77,5.62-2.3Z" style="fill:#1d1d1b;"/><path d="m1167.89,427.82h-12.24c-2.27,0-3.79-.1-4.56-.29.38,3.52,2.7,5.28,6.96,5.28,3.49,0,6.08-.48,7.78-1.44,0,1.89.16,3.54.48,4.94-1.86,1.47-4.67,2.21-8.45,2.21-3.97,0-7.1-1.15-9.41-3.46-2.3-2.3-3.46-5.49-3.46-9.55s1.07-7.12,3.22-9.55c2.14-2.43,5.02-3.65,8.64-3.65,7.36,0,11.04,4.51,11.04,13.54v1.97Zm-5.95-3.89c0-2.14-.38-3.66-1.15-4.54-.77-.88-2.11-1.32-4.03-1.32-3.87,0-5.81,1.97-5.81,5.9,1.7-.22,3.62-.34,5.76-.34,1.95,0,3.7.1,5.23.29Z" style="fill:#1d1d1b;"/><path d="m1196.49,402.43c-.22,6.43-.34,13.46-.34,21.07,0,4.64.06,9.46.19,14.45-1.28-.06-2.08-.1-2.4-.1-.38,0-1.34.03-2.88.1-.19-1.44-.29-2.86-.29-4.27h-.19c-.7,1.7-1.57,2.98-2.59,3.84-1.02.86-2.51,1.3-4.46,1.3-3.39,0-6.16-1.3-8.3-3.89-2.14-2.59-3.22-5.76-3.22-9.5,0-4.03,1.03-7.22,3.1-9.58,2.06-2.35,4.82-3.53,8.28-3.53,3.07,0,5.28,1.23,6.62,3.7l.14-.1c-.13-.64-.19-2.85-.19-6.62s-.05-6.22-.14-6.86c1.34.06,2.54.1,3.6.1,1.15,0,2.18-.03,3.07-.1Zm-6.38,27.98c-.1-1.25-.14-2.94-.14-5.09,0-1.82.05-3.5.14-5.04-.7-.7-1.5-1.19-2.38-1.46-.88-.27-2.04-.41-3.48-.41-1.98,0-3.5.62-4.54,1.85-1.04,1.23-1.56,2.94-1.56,5.11s.55,4.02,1.66,5.35c1.1,1.33,2.66,1.99,4.68,1.99,2.43,0,4.3-.77,5.62-2.3Z" style="fill:#1d1d1b;"/><path d="m1236.19,402.43c-.22,6.43-.34,13.46-.34,21.07,0,4.64.06,9.46.19,14.45-1.28-.06-2.08-.1-2.4-.1-.38,0-1.34.03-2.88.1-.19-1.44-.29-2.86-.29-4.27h-.19c-.7,1.7-1.57,2.98-2.59,3.84-1.02.86-2.51,1.3-4.46,1.3-3.39,0-6.16-1.3-8.3-3.89-2.14-2.59-3.22-5.76-3.22-9.5,0-4.03,1.03-7.22,3.1-9.58,2.06-2.35,4.82-3.53,8.28-3.53,3.07,0,5.28,1.23,6.62,3.7l.14-.1c-.13-.64-.19-2.85-.19-6.62s-.05-6.22-.14-6.86c1.34.06,2.54.1,3.6.1,1.15,0,2.18-.03,3.07-.1Zm-6.38,27.98c-.1-1.25-.14-2.94-.14-5.09,0-1.82.05-3.5.14-5.04-.7-.7-1.5-1.19-2.38-1.46-.88-.27-2.04-.41-3.48-.41-1.98,0-3.5.62-4.54,1.85-1.04,1.23-1.56,2.94-1.56,5.11s.55,4.02,1.66,5.35c1.1,1.33,2.66,1.99,4.68,1.99,2.43,0,4.3-.77,5.62-2.3Z" style="fill:#1d1d1b;"/><path d="m1263.84,413.23c-.16,2.85-.24,7.04-.24,12.58,0,4.51.06,8.56.19,12.14-1.02-.06-1.89-.1-2.59-.1-.96,0-1.92.03-2.88.1-.13-1.12-.19-2.43-.19-3.94l-.14-.05c-1.31,3.1-3.5,4.66-6.58,4.66-2.62,0-4.78-.86-6.46-2.59-1.68-1.73-2.52-4.54-2.52-8.45,0-5.95-.08-10.74-.24-14.35.86.06,1.9.1,3.12.1,1.09,0,2.24-.03,3.46-.1-.13,1.95-.19,6.16-.19,12.62,0,2.66.3,4.43.89,5.33.59.9,1.77,1.34,3.53,1.34,1.95,0,3.47-.62,4.56-1.87-.06-1.18-.1-3.6-.1-7.25,0-4.06-.06-7.46-.19-10.18,1.34.06,2.48.1,3.41.1,1.28,0,2.33-.03,3.17-.1Z" style="fill:#1d1d1b;"/><path d="m1291.87,427.82h-12.24c-2.27,0-3.79-.1-4.56-.29.38,3.52,2.7,5.28,6.96,5.28,3.49,0,6.08-.48,7.78-1.44,0,1.89.16,3.54.48,4.94-1.86,1.47-4.67,2.21-8.45,2.21-3.97,0-7.1-1.15-9.41-3.46-2.3-2.3-3.46-5.49-3.46-9.55s1.07-7.12,3.22-9.55c2.14-2.43,5.02-3.65,8.64-3.65,7.36,0,11.04,4.51,11.04,13.54v1.97Zm-5.95-3.89c0-2.14-.38-3.66-1.15-4.54-.77-.88-2.11-1.32-4.03-1.32-3.87,0-5.81,1.97-5.81,5.9,1.7-.22,3.62-.34,5.76-.34,1.95,0,3.7.1,5.23.29Z" style="fill:#1d1d1b;"/><path d="m719.09,477.12c-.26-.03-1.38-.1-3.36-.19-1.98-.1-3.33-.26-4.03-.48l-.14.19c.38,2.11.58,5.07.58,8.88,0,1.95.22,3.18.67,3.7.45.51,1.54.77,3.26.77,1.09,0,2-.06,2.74-.19-.03.48-.05,1.31-.05,2.5,0,.32.08,1.33.24,3.02-1.63.45-3.46.67-5.47.67-2.66,0-4.58-.67-5.76-2.02-1.18-1.34-1.78-3.47-1.78-6.38,0-4.03.26-7.7.77-10.99l-.14-.1c-.45.16-1,.28-1.66.36-.66.08-1.35.14-2.09.17-.74.03-1.22.06-1.44.1.1-1.22.14-2.21.14-2.98,0-1.22-.05-2.27-.14-3.17.22.03,1.07.07,2.54.12,1.47.05,2.43.14,2.88.26l.1-.05c-.1-.29-.17-.73-.22-1.32-.05-.59-.1-1.33-.14-2.21-.05-.88-.07-1.43-.07-1.66,2.4-.06,4.34-.26,5.81-.58-.06.48-.12,1.38-.17,2.69-.05,1.31-.15,2.34-.31,3.07l.14.1c.51-.16,1.75-.26,3.72-.31,1.97-.05,3.1-.09,3.38-.12-.1.86-.14,1.97-.14,3.31,0,.74.05,1.68.14,2.83Z" style="fill:#1d1d1b;"/><path d="m746.93,482.98c0,4-1.12,7.24-3.36,9.72-2.24,2.48-5.22,3.72-8.93,3.72s-6.69-1.25-8.93-3.74c-2.24-2.5-3.36-5.76-3.36-9.79s1.14-7.04,3.41-9.41c2.27-2.37,5.23-3.55,8.88-3.55s6.61,1.18,8.88,3.55c2.27,2.37,3.41,5.54,3.41,9.5Zm-5.95,0c0-2.3-.53-4.07-1.58-5.3-1.06-1.23-2.62-1.85-4.7-1.85s-3.66.62-4.75,1.87c-1.09,1.25-1.63,3.01-1.63,5.28s.54,4.06,1.63,5.47c1.09,1.41,2.66,2.11,4.7,2.11s3.62-.7,4.7-2.11c1.09-1.41,1.63-3.23,1.63-5.47Z" style="fill:#1d1d1b;"/><path d="m784.76,470.83c-.16.61-.5,1.58-1.03,2.93-.53,1.34-1.49,3.74-2.88,7.2-1.39,3.46-2.7,6.75-3.91,9.89-2.85,7.23-4.62,11.87-5.33,13.92-1.02-.06-2.13-.1-3.31-.1-1.6,0-2.96.03-4.08.1.83-1.6,1.76-3.55,2.78-5.86.96-2.21,1.76-3.82,2.4-4.85-.26-.54-.82-1.8-1.7-3.77-.88-1.97-1.75-3.9-2.62-5.78-2.3-4.99-3.79-8.3-4.46-9.94-.67-1.63-1.09-2.88-1.25-3.74.48.06,1.66.1,3.55.1,1.28,0,2.45-.03,3.5-.1.61,1.82,1.7,4.74,3.26,8.74,1.31,3.52,2.19,6.54,2.64,9.07h.14c.35-2.62,1.15-5.65,2.4-9.07,1.44-3.9,2.42-6.82,2.93-8.74.93.06,2.13.1,3.6.1,1.22,0,2.34-.03,3.36-.1Z" style="fill:#1d1d1b;"/><path d="m810.68,482.98c0,4-1.12,7.24-3.36,9.72-2.24,2.48-5.22,3.72-8.93,3.72s-6.69-1.25-8.93-3.74c-2.24-2.5-3.36-5.76-3.36-9.79s1.14-7.04,3.41-9.41c2.27-2.37,5.23-3.55,8.88-3.55s6.61,1.18,8.88,3.55c2.27,2.37,3.41,5.54,3.41,9.5Zm-5.95,0c0-2.3-.53-4.07-1.58-5.3-1.06-1.23-2.62-1.85-4.7-1.85s-3.66.62-4.75,1.87c-1.09,1.25-1.63,3.01-1.63,5.28s.54,4.06,1.63,5.47c1.09,1.41,2.66,2.11,4.7,2.11s3.62-.7,4.7-2.11c1.09-1.41,1.63-3.23,1.63-5.47Z" style="fill:#1d1d1b;"/><path d="m837.32,470.83c-.16,2.85-.24,7.04-.24,12.58,0,4.51.06,8.56.19,12.14-1.02-.06-1.89-.1-2.59-.1-.96,0-1.92.03-2.88.1-.13-1.12-.19-2.43-.19-3.94l-.14-.05c-1.31,3.1-3.5,4.66-6.58,4.66-2.62,0-4.78-.86-6.46-2.59s-2.52-4.54-2.52-8.45c0-5.95-.08-10.74-.24-14.35.86.06,1.9.1,3.12.1,1.09,0,2.24-.03,3.46-.1-.13,1.95-.19,6.16-.19,12.62,0,2.66.3,4.43.89,5.33.59.9,1.77,1.34,3.53,1.34,1.95,0,3.47-.62,4.56-1.87-.06-1.18-.1-3.6-.1-7.25,0-4.06-.06-7.46-.19-10.18,1.34.06,2.48.1,3.41.1,1.28,0,2.34-.03,3.17-.1Z" style="fill:#1d1d1b;"/><path d="m858.63,470.98c-.16,1.6-.24,3.79-.24,6.58-.67-.26-1.71-.38-3.12-.38-1.28,0-2.3.21-3.07.62-.77.42-1.5,1.14-2.21,2.16.13,2.05.19,4,.19,5.86,0,4.26.08,7.5.24,9.74-1.28-.06-2.43-.1-3.46-.1-1.15,0-2.21.03-3.17.1.13-2.82.19-6.51.19-11.09,0-5.73-.08-10.27-.24-13.63,1.54.06,2.48.1,2.83.1,1.06,0,1.9-.03,2.54-.1.16.99.24,2.45.24,4.37l.14.1c.93-1.86,1.83-3.1,2.71-3.72.88-.62,2.22-.94,4.01-.94.93,0,1.73.11,2.4.34Z" style="fill:#1d1d1b;"/><path d="m896.26,482.78c0,3.71-1.1,6.91-3.29,9.6-2.19,2.69-4.89,4.03-8.09,4.03-1.47,0-2.71-.26-3.72-.77-1.01-.51-1.93-1.39-2.76-2.64l-.14.05c.1,1.22.14,3.18.14,5.9,0,1.28.05,3.22.14,5.81-1.15-.06-2.27-.1-3.36-.1s-2.08.03-3.07.1c.13-3.49.19-10.16.19-20.02,0-7.52-.08-12.16-.24-13.92.67.06,1.62.1,2.83.1,1.06,0,1.95-.03,2.69-.1.16,1.38.24,2.69.24,3.94h.14c1.47-3.23,4.03-4.85,7.68-4.85,3.39,0,6.01,1.12,7.85,3.36,1.84,2.24,2.76,5.41,2.76,9.5Zm-6.14.1c0-4.58-1.89-6.86-5.66-6.86-2.85,0-4.91.69-6.19,2.06.13,1.15.19,2.83.19,5.04s-.08,3.97-.24,5.47c1.47,1.15,3.42,1.73,5.86,1.73,1.86,0,3.33-.67,4.42-2.02,1.09-1.34,1.63-3.15,1.63-5.42Z" style="fill:#1d1d1b;"/><path d="m916.47,470.98c-.16,1.6-.24,3.79-.24,6.58-.67-.26-1.71-.38-3.12-.38-1.28,0-2.3.21-3.07.62-.77.42-1.5,1.14-2.21,2.16.13,2.05.19,4,.19,5.86,0,4.26.08,7.5.24,9.74-1.28-.06-2.43-.1-3.46-.1-1.15,0-2.21.03-3.17.1.13-2.82.19-6.51.19-11.09,0-5.73-.08-10.27-.24-13.63,1.54.06,2.48.1,2.83.1,1.06,0,1.9-.03,2.54-.1.16.99.24,2.45.24,4.37l.14.1c.93-1.86,1.83-3.1,2.71-3.72.88-.62,2.22-.94,4.01-.94.93,0,1.73.11,2.4.34Z" style="fill:#1d1d1b;"/><path d="m927.27,465.98c-1.54-.06-2.85-.1-3.94-.1-.83,0-2.14.03-3.94.1.03-.83.05-1.84.05-3.02,0-1.31-.03-2.29-.1-2.93,1.66.06,2.98.1,3.94.1,1.06,0,2.38-.03,3.98-.1-.06,1.54-.1,2.51-.1,2.93,0,1.15.03,2.16.1,3.02Zm-.48,4.85c-.19,5.63-.29,9.92-.29,12.86,0,1.02,0,2.19.02,3.5.02,1.31.04,2.79.07,4.44.03,1.65.05,2.95.05,3.91-1.66-.06-2.77-.1-3.31-.1-.48,0-1.55.03-3.22.1,0-1.41.02-3.46.05-6.14.03-2.69.05-4.59.05-5.71,0-2.08-.08-6.37-.24-12.86,1.73.06,2.85.1,3.36.1.7,0,1.86-.03,3.46-.1Z" style="fill:#1d1d1b;"/><path d="m954.24,470.83c-.16.67-.38,1.4-.67,2.18-.29.78-.59,1.59-.91,2.42-.32.83-.88,2.3-1.68,4.39-.8,2.1-1.6,4.23-2.4,6.41-1.79,4.58-2.96,7.68-3.5,9.31-.7-.06-1.58-.1-2.64-.1-1.22,0-2.19.03-2.93.1-.83-2.69-1.98-5.79-3.46-9.31-.8-2.08-1.62-4.22-2.45-6.41-.83-2.19-1.41-3.69-1.73-4.49-.32-.8-.62-1.6-.89-2.4-.27-.8-.47-1.5-.6-2.11.45.06,1.65.1,3.6.1,1.22,0,2.34-.03,3.36-.1.54,2.3,1.26,4.75,2.16,7.34,1.63,4.8,2.56,8.51,2.78,11.14h.19c.22-2.56,1.14-6.26,2.74-11.09,1.02-3.07,1.74-5.54,2.16-7.39,1.12.06,2.24.1,3.36.1,1.57,0,2.74-.03,3.5-.1Z" style="fill:#1d1d1b;"/><path d="m977.23,495.55c-1.02-.06-1.86-.1-2.5-.1-.26,0-1.15.03-2.69.1-.32-1.57-.5-2.88-.53-3.94h-.19c-.51,1.6-1.28,2.78-2.3,3.55-1.02.77-2.46,1.15-4.32,1.15-2.53,0-4.52-.66-5.98-1.97-1.46-1.31-2.18-3.15-2.18-5.52,0-2.85,1.05-4.88,3.14-6.1,2.1-1.22,5.35-1.82,9.77-1.82h1.2v-1.25c0-1.47-.34-2.46-1.03-2.95-.69-.5-1.99-.74-3.91-.74-3.68,0-6.22.91-7.63,2.74l-.1-.1c-.13-2.3-.34-3.97-.62-4.99,1.7-2.4,4.62-3.6,8.78-3.6,3.65,0,6.31.8,7.99,2.4,1.68,1.6,2.52,4.13,2.52,7.58v9.07c0,2.11.19,4.27.58,6.48Zm-6.58-6.48v-4.18c-.26.06-1.54.16-3.84.29-1.6.1-2.74.37-3.43.82-.69.45-1.03,1.18-1.03,2.21s.29,1.71.89,2.16c.59.45,1.54.67,2.86.67,2.11,0,3.63-.66,4.56-1.97Z" style="fill:#1d1d1b;"/><path d="m1001.86,472.8c-.35,1.12-.61,2.99-.77,5.62-.86-.86-1.75-1.46-2.66-1.78-.91-.32-2.1-.48-3.58-.48-2.21,0-3.92.62-5.14,1.85-1.22,1.23-1.82,2.9-1.82,5.02s.62,3.85,1.85,5.11c1.23,1.26,2.94,1.9,5.11,1.9,2.46,0,4.5-.67,6.1-2.02,0,1.95.18,3.81.53,5.57-1.76,1.7-4.08,2.54-6.96,2.54-3.84,0-6.91-1.24-9.22-3.72-2.3-2.48-3.46-5.64-3.46-9.48s1.16-6.82,3.48-9.24c2.32-2.42,5.43-3.62,9.34-3.62,3.3,0,5.7.91,7.2,2.74Z" style="fill:#1d1d1b;"/><path d="m1029.03,470.83c-.16.61-.5,1.58-1.03,2.93-.53,1.34-1.49,3.74-2.88,7.2-1.39,3.46-2.7,6.75-3.91,9.89-2.85,7.23-4.62,11.87-5.33,13.92-1.02-.06-2.13-.1-3.31-.1-1.6,0-2.96.03-4.08.1.83-1.6,1.76-3.55,2.78-5.86.96-2.21,1.76-3.82,2.4-4.85-.26-.54-.82-1.8-1.7-3.77-.88-1.97-1.75-3.9-2.62-5.78-2.3-4.99-3.79-8.3-4.46-9.94s-1.09-2.88-1.25-3.74c.48.06,1.66.1,3.55.1,1.28,0,2.45-.03,3.5-.1.61,1.82,1.7,4.74,3.26,8.74,1.31,3.52,2.19,6.54,2.64,9.07h.14c.35-2.62,1.15-5.65,2.4-9.07,1.44-3.9,2.42-6.82,2.93-8.74.93.06,2.13.1,3.6.1,1.22,0,2.33-.03,3.36-.1Z" style="fill:#1d1d1b;"/><path d="m1058.69,488.02c0,2.59-.86,4.59-2.59,6-1.73,1.41-4.14,2.11-7.25,2.11-2.91,0-5.17-.58-6.77-1.73.26-1.44.42-3.18.48-5.23,1.86.8,3.89,1.2,6.1,1.2,1.54,0,2.61-.2,3.22-.6.61-.4.91-1.06.91-1.99,0-.8-.27-1.35-.82-1.66-.54-.3-1.87-.65-3.98-1.03-2.4-.42-4.12-1.18-5.16-2.28-1.04-1.1-1.56-2.62-1.56-4.54,0-2.53.9-4.53,2.71-6,1.81-1.47,4.38-2.21,7.7-2.21,3.07,0,5.39.64,6.96,1.92-.32.99-.54,2.74-.67,5.23-1.34-.8-3.33-1.2-5.95-1.2-3.17,0-4.75.86-4.75,2.59,0,.8.26,1.35.79,1.66.53.3,1.9.66,4.1,1.08,2.3.42,3.97,1.14,4.99,2.18,1.02,1.04,1.54,2.54,1.54,4.49Z" style="fill:#1d1d1b;"/><path d="m1085.81,485.42h-12.24c-2.27,0-3.79-.1-4.56-.29.38,3.52,2.7,5.28,6.96,5.28,3.49,0,6.08-.48,7.78-1.44,0,1.89.16,3.54.48,4.94-1.86,1.47-4.67,2.21-8.45,2.21-3.97,0-7.1-1.15-9.41-3.46-2.3-2.3-3.46-5.49-3.46-9.55s1.07-7.12,3.22-9.55c2.14-2.43,5.02-3.65,8.64-3.65,7.36,0,11.04,4.51,11.04,13.54v1.97Zm-5.95-3.89c0-2.14-.38-3.66-1.15-4.54-.77-.88-2.11-1.32-4.03-1.32-3.87,0-5.81,1.97-5.81,5.9,1.7-.22,3.62-.34,5.76-.34,1.95,0,3.7.1,5.23.29Z" style="fill:#1d1d1b;"/><path d="m1106.3,477.12c-.26-.03-1.38-.1-3.36-.19-1.98-.1-3.33-.26-4.03-.48l-.14.19c.38,2.11.58,5.07.58,8.88,0,1.95.22,3.18.67,3.7.45.51,1.54.77,3.26.77,1.09,0,2-.06,2.74-.19-.03.48-.05,1.31-.05,2.5,0,.32.08,1.33.24,3.02-1.63.45-3.46.67-5.47.67-2.66,0-4.58-.67-5.76-2.02-1.18-1.34-1.78-3.47-1.78-6.38,0-4.03.26-7.7.77-10.99l-.14-.1c-.45.16-1,.28-1.66.36-.66.08-1.35.14-2.09.17-.74.03-1.22.06-1.44.1.1-1.22.14-2.21.14-2.98,0-1.22-.05-2.27-.14-3.17.22.03,1.07.07,2.54.12s2.43.14,2.88.26l.1-.05c-.1-.29-.17-.73-.22-1.32-.05-.59-.1-1.33-.14-2.21-.05-.88-.07-1.43-.07-1.66,2.4-.06,4.33-.26,5.81-.58-.06.48-.12,1.38-.17,2.69-.05,1.31-.15,2.34-.31,3.07l.14.1c.51-.16,1.75-.26,3.72-.31s3.1-.09,3.38-.12c-.1.86-.14,1.97-.14,3.31,0,.74.05,1.68.14,2.83Z" style="fill:#1d1d1b;"/><path d="m1126.42,477.12c-.26-.03-1.38-.1-3.36-.19-1.98-.1-3.33-.26-4.03-.48l-.14.19c.38,2.11.58,5.07.58,8.88,0,1.95.22,3.18.67,3.7.45.51,1.54.77,3.26.77,1.09,0,2-.06,2.74-.19-.03.48-.05,1.31-.05,2.5,0,.32.08,1.33.24,3.02-1.63.45-3.46.67-5.47.67-2.66,0-4.58-.67-5.76-2.02-1.18-1.34-1.78-3.47-1.78-6.38,0-4.03.26-7.7.77-10.99l-.14-.1c-.45.16-1,.28-1.66.36-.66.08-1.35.14-2.09.17-.74.03-1.22.06-1.44.1.1-1.22.14-2.21.14-2.98,0-1.22-.05-2.27-.14-3.17.22.03,1.07.07,2.54.12s2.43.14,2.88.26l.1-.05c-.1-.29-.17-.73-.22-1.32-.05-.59-.1-1.33-.14-2.21-.05-.88-.07-1.43-.07-1.66,2.4-.06,4.33-.26,5.81-.58-.06.48-.12,1.38-.17,2.69-.05,1.31-.15,2.34-.31,3.07l.14.1c.51-.16,1.75-.26,3.72-.31s3.1-.09,3.38-.12c-.1.86-.14,1.97-.14,3.31,0,.74.05,1.68.14,2.83Z" style="fill:#1d1d1b;"/><path d="m1138.65,465.98c-1.54-.06-2.85-.1-3.94-.1-.83,0-2.14.03-3.94.1.03-.83.05-1.84.05-3.02,0-1.31-.03-2.29-.1-2.93,1.66.06,2.98.1,3.94.1,1.06,0,2.38-.03,3.98-.1-.06,1.54-.1,2.51-.1,2.93,0,1.15.03,2.16.1,3.02Zm-.48,4.85c-.19,5.63-.29,9.92-.29,12.86,0,1.02,0,2.19.02,3.5.02,1.31.04,2.79.07,4.44.03,1.65.05,2.95.05,3.91-1.66-.06-2.77-.1-3.31-.1-.48,0-1.55.03-3.22.1,0-1.41.02-3.46.05-6.14.03-2.69.05-4.59.05-5.71,0-2.08-.08-6.37-.24-12.86,1.73.06,2.85.1,3.36.1.7,0,1.86-.03,3.46-.1Z" style="fill:#1d1d1b;"/><path d="m1166.3,495.55c-1.09-.06-2.11-.1-3.07-.1l-3.41.1c.13-4.26.19-8.48.19-12.67,0-2.66-.24-4.42-.72-5.28-.48-.86-1.68-1.3-3.6-1.3s-3.55.64-4.7,1.92c.1,1.12.14,3.49.14,7.1,0,4.38.06,7.79.19,10.22-1.09-.06-2.24-.1-3.46-.1l-3.02.1c.1-2.78.14-6.35.14-10.7,0-6.11-.06-10.78-.19-14.02.83.06,1.73.1,2.69.1l2.78-.1c.16,1.28.25,2.64.29,4.08l.19.05c.8-1.57,1.72-2.75,2.76-3.55,1.04-.8,2.44-1.2,4.2-1.2,1.5,0,2.79.22,3.86.65,1.07.43,1.9.98,2.47,1.63.58.66,1.03,1.54,1.37,2.66.34,1.12.54,2.17.62,3.14.08.98.12,2.2.12,3.67,0,4.45.05,8.98.14,13.58Z" style="fill:#1d1d1b;"/><path d="m1194.53,470.83c-.16,4.32-.24,8.16-.24,11.52v10.13c0,4.38-1.09,7.62-3.26,9.7-2.18,2.08-5.15,3.12-8.93,3.12-2.34,0-4.34-.42-6-1.25.22-1.57.37-3.36.43-5.38,1.47.45,3.23.67,5.28.67,2.27,0,3.91-.47,4.92-1.42,1.01-.94,1.51-2.49,1.51-4.63v-1.15c0-.45.05-1.1.14-1.97l-.1-.05c-.42,1.09-1.14,2.01-2.18,2.76-1.04.75-2.28,1.13-3.72,1.13-3.3,0-5.98-1.1-8.06-3.31s-3.12-5.04-3.12-8.5c0-3.71,1-6.64,3-8.78,2-2.14,4.7-3.22,8.09-3.22,3.2,0,5.41,1.22,6.62,3.65l.14-.1c.16-1.09.37-2.06.62-2.93,1.22.06,2.02.1,2.4.1.1,0,.91-.03,2.45-.1Zm-6.1,7.01c-1.12-1.02-2.95-1.54-5.47-1.54-3.78,0-5.66,1.97-5.66,5.9,0,1.92.5,3.42,1.51,4.49,1.01,1.07,2.47,1.61,4.39,1.61,2.46,0,4.16-.72,5.09-2.16-.1-1.06-.14-2.3-.14-3.74s.1-2.96.29-4.56Z" style="fill:#1d1d1b;"/><path d="m1217.13,488.02c0,2.59-.86,4.59-2.59,6-1.73,1.41-4.14,2.11-7.25,2.11-2.91,0-5.17-.58-6.77-1.73.26-1.44.42-3.18.48-5.23,1.86.8,3.89,1.2,6.1,1.2,1.54,0,2.61-.2,3.22-.6.61-.4.91-1.06.91-1.99,0-.8-.27-1.35-.82-1.66-.54-.3-1.87-.65-3.98-1.03-2.4-.42-4.12-1.18-5.16-2.28-1.04-1.1-1.56-2.62-1.56-4.54,0-2.53.9-4.53,2.71-6,1.81-1.47,4.38-2.21,7.7-2.21,3.07,0,5.39.64,6.96,1.92-.32.99-.54,2.74-.67,5.23-1.34-.8-3.33-1.2-5.95-1.2-3.17,0-4.75.86-4.75,2.59,0,.8.26,1.35.79,1.66.53.3,1.9.66,4.1,1.08,2.3.42,3.97,1.14,4.99,2.18,1.02,1.04,1.54,2.54,1.54,4.49Z" style="fill:#1d1d1b;"/><path d="m571.88,575.23c-.19,6.59-.29,13.34-.29,20.26,0,5.31.06,10.4.19,15.26-1.79-.06-2.94-.1-3.46-.1-.58,0-1.7.03-3.36.1.13-7.36.19-12.48.19-15.36,0-7.62-.11-14.34-.34-20.16,1.86.06,3.02.1,3.5.1.77,0,1.95-.03,3.55-.1Z" style="fill:#1d1d1b;"/><path d="m586.18,575.23c-.19,4.35-.29,11.87-.29,22.56,0,4.29.08,8.61.24,12.96-.9-.06-1.98-.1-3.26-.1-1.47,0-2.62.03-3.46.1.19-5.28.29-9.6.29-12.96,0-11.39-.1-18.91-.29-22.56,1.22.06,2.32.1,3.31.1,1.7,0,2.85-.03,3.46-.1Z" style="fill:#1d1d1b;"/><path d="m621.84,588c-.35,1.12-.61,2.99-.77,5.62-.86-.86-1.75-1.46-2.66-1.78-.91-.32-2.1-.48-3.58-.48-2.21,0-3.92.62-5.14,1.85-1.22,1.23-1.82,2.9-1.82,5.02s.62,3.85,1.85,5.11c1.23,1.26,2.94,1.9,5.11,1.9,2.46,0,4.5-.67,6.1-2.02,0,1.95.18,3.81.53,5.57-1.76,1.7-4.08,2.54-6.96,2.54-3.84,0-6.91-1.24-9.22-3.72-2.3-2.48-3.46-5.64-3.46-9.48s1.16-6.82,3.48-9.24c2.32-2.42,5.43-3.62,9.34-3.62,3.3,0,5.7.91,7.2,2.74Z" style="fill:#1d1d1b;"/><path d="m649.49,598.18c0,4-1.12,7.24-3.36,9.72-2.24,2.48-5.22,3.72-8.93,3.72s-6.69-1.25-8.93-3.74c-2.24-2.5-3.36-5.76-3.36-9.79s1.14-7.04,3.41-9.41c2.27-2.37,5.23-3.55,8.88-3.55s6.61,1.18,8.88,3.55c2.27,2.37,3.41,5.54,3.41,9.5Zm-5.95,0c0-2.3-.53-4.07-1.58-5.3-1.06-1.23-2.62-1.85-4.7-1.85s-3.66.62-4.75,1.87c-1.09,1.25-1.63,3.01-1.63,5.28s.54,4.06,1.63,5.47c1.09,1.41,2.66,2.11,4.7,2.11s3.62-.7,4.7-2.11c1.09-1.41,1.63-3.23,1.63-5.47Z" style="fill:#1d1d1b;"/><path d="m676.27,610.75c-1.09-.06-2.11-.1-3.07-.1l-3.41.1c.13-4.25.19-8.48.19-12.67,0-2.66-.24-4.42-.72-5.28-.48-.86-1.68-1.3-3.6-1.3s-3.55.64-4.7,1.92c.1,1.12.14,3.49.14,7.1,0,4.38.06,7.79.19,10.22-1.09-.06-2.24-.1-3.46-.1l-3.02.1c.1-2.78.14-6.35.14-10.7,0-6.11-.06-10.78-.19-14.02.83.06,1.73.1,2.69.1l2.78-.1c.16,1.28.26,2.64.29,4.08l.19.05c.8-1.57,1.72-2.75,2.76-3.55,1.04-.8,2.44-1.2,4.2-1.2,1.5,0,2.79.22,3.86.65,1.07.43,1.9.98,2.47,1.63.58.66,1.03,1.54,1.37,2.66s.54,2.17.62,3.14c.08.98.12,2.2.12,3.67,0,4.45.05,8.98.14,13.58Z" style="fill:#1d1d1b;"/><path d="m697.44,592.32c-.26-.03-1.38-.1-3.36-.19-1.98-.1-3.33-.26-4.03-.48l-.14.19c.38,2.11.58,5.07.58,8.88,0,1.95.22,3.18.67,3.7.45.51,1.54.77,3.26.77,1.09,0,2-.06,2.74-.19-.03.48-.05,1.31-.05,2.5,0,.32.08,1.33.24,3.02-1.63.45-3.46.67-5.47.67-2.66,0-4.58-.67-5.76-2.02-1.18-1.34-1.78-3.47-1.78-6.38,0-4.03.26-7.7.77-10.99l-.14-.1c-.45.16-1,.28-1.66.36-.66.08-1.35.14-2.09.17-.74.03-1.22.06-1.44.1.1-1.22.14-2.21.14-2.98,0-1.21-.05-2.27-.14-3.17.22.03,1.07.07,2.54.12,1.47.05,2.43.14,2.88.26l.1-.05c-.1-.29-.17-.73-.22-1.32-.05-.59-.1-1.33-.14-2.21-.05-.88-.07-1.43-.07-1.66,2.4-.06,4.34-.26,5.81-.58-.06.48-.12,1.38-.17,2.69-.05,1.31-.15,2.34-.31,3.07l.14.1c.51-.16,1.75-.26,3.72-.31,1.97-.05,3.1-.09,3.38-.12-.1.86-.14,1.97-.14,3.31,0,.74.05,1.68.14,2.83Z" style="fill:#1d1d1b;"/><path d="m723.55,600.62h-12.24c-2.27,0-3.79-.1-4.56-.29.38,3.52,2.7,5.28,6.96,5.28,3.49,0,6.08-.48,7.78-1.44,0,1.89.16,3.54.48,4.94-1.86,1.47-4.67,2.21-8.45,2.21-3.97,0-7.1-1.15-9.41-3.46-2.3-2.3-3.46-5.49-3.46-9.55s1.07-7.12,3.22-9.55c2.14-2.43,5.02-3.65,8.64-3.65,7.36,0,11.04,4.51,11.04,13.54v1.97Zm-5.95-3.89c0-2.14-.38-3.66-1.15-4.54-.77-.88-2.11-1.32-4.03-1.32-3.87,0-5.81,1.97-5.81,5.9,1.7-.22,3.62-.34,5.76-.34,1.95,0,3.7.1,5.23.29Z" style="fill:#1d1d1b;"/><path d="m750.34,610.75c-1.09-.06-2.11-.1-3.07-.1l-3.41.1c.13-4.25.19-8.48.19-12.67,0-2.66-.24-4.42-.72-5.28-.48-.86-1.68-1.3-3.6-1.3s-3.55.64-4.7,1.92c.1,1.12.14,3.49.14,7.1,0,4.38.06,7.79.19,10.22-1.09-.06-2.24-.1-3.46-.1l-3.02.1c.1-2.78.14-6.35.14-10.7,0-6.11-.06-10.78-.19-14.02.83.06,1.73.1,2.69.1l2.78-.1c.16,1.28.26,2.64.29,4.08l.19.05c.8-1.57,1.72-2.75,2.76-3.55,1.04-.8,2.44-1.2,4.2-1.2,1.5,0,2.79.22,3.86.65,1.07.43,1.9.98,2.47,1.63.58.66,1.03,1.54,1.37,2.66s.54,2.17.62,3.14c.08.98.12,2.2.12,3.67,0,4.45.05,8.98.14,13.58Z" style="fill:#1d1d1b;"/><path d="m777.89,586.03c-.16,2.85-.24,7.04-.24,12.58,0,4.51.06,8.56.19,12.14-1.02-.06-1.89-.1-2.59-.1-.96,0-1.92.03-2.88.1-.13-1.12-.19-2.43-.19-3.94l-.14-.05c-1.31,3.1-3.5,4.66-6.58,4.66-2.62,0-4.78-.86-6.46-2.59-1.68-1.73-2.52-4.54-2.52-8.45,0-5.95-.08-10.74-.24-14.35.86.06,1.9.1,3.12.1,1.09,0,2.24-.03,3.46-.1-.13,1.95-.19,6.16-.19,12.62,0,2.66.3,4.43.89,5.33.59.9,1.77,1.34,3.53,1.34,1.95,0,3.47-.62,4.56-1.87-.06-1.18-.1-3.6-.1-7.25,0-4.06-.06-7.46-.19-10.18,1.34.06,2.48.1,3.41.1,1.28,0,2.34-.03,3.17-.1Z" style="fill:#1d1d1b;"/><path d="m799.44,592.32c-.26-.03-1.38-.1-3.36-.19-1.98-.1-3.33-.26-4.03-.48l-.14.19c.38,2.11.58,5.07.58,8.88,0,1.95.22,3.18.67,3.7.45.51,1.54.77,3.26.77,1.09,0,2-.06,2.74-.19-.03.48-.05,1.31-.05,2.5,0,.32.08,1.33.24,3.02-1.63.45-3.46.67-5.47.67-2.66,0-4.58-.67-5.76-2.02-1.18-1.34-1.78-3.47-1.78-6.38,0-4.03.26-7.7.77-10.99l-.14-.1c-.45.16-1,.28-1.66.36-.66.08-1.35.14-2.09.17-.74.03-1.22.06-1.44.1.1-1.22.14-2.21.14-2.98,0-1.21-.05-2.27-.14-3.17.22.03,1.07.07,2.54.12,1.47.05,2.43.14,2.88.26l.1-.05c-.1-.29-.17-.73-.22-1.32-.05-.59-.1-1.33-.14-2.21-.05-.88-.07-1.43-.07-1.66,2.4-.06,4.34-.26,5.81-.58-.06.48-.12,1.38-.17,2.69-.05,1.31-.15,2.34-.31,3.07l.14.1c.51-.16,1.75-.26,3.72-.31,1.97-.05,3.1-.09,3.38-.12-.1.86-.14,1.97-.14,3.31,0,.74.05,1.68.14,2.83Z" style="fill:#1d1d1b;"/><path d="m827.28,598.18c0,4-1.12,7.24-3.36,9.72-2.24,2.48-5.22,3.72-8.93,3.72s-6.69-1.25-8.93-3.74c-2.24-2.5-3.36-5.76-3.36-9.79s1.14-7.04,3.41-9.41c2.27-2.37,5.23-3.55,8.88-3.55s6.61,1.18,8.88,3.55c2.27,2.37,3.41,5.54,3.41,9.5Zm-5.95,0c0-2.3-.53-4.07-1.58-5.3-1.06-1.23-2.62-1.85-4.7-1.85s-3.66.62-4.75,1.87c-1.09,1.25-1.63,3.01-1.63,5.28s.54,4.06,1.63,5.47c1.09,1.41,2.66,2.11,4.7,2.11s3.62-.7,4.7-2.11c1.09-1.41,1.63-3.23,1.63-5.47Z" style="fill:#1d1d1b;"/><path d="m864.15,610.75c-1.09-.06-2.11-.1-3.07-.1l-3.41.1c.13-4.25.19-8.48.19-12.67,0-2.66-.24-4.42-.72-5.28-.48-.86-1.68-1.3-3.6-1.3s-3.55.64-4.7,1.92c.1,1.12.14,3.49.14,7.1,0,4.38.06,7.79.19,10.22-1.09-.06-2.24-.1-3.46-.1l-3.02.1c.1-2.78.14-6.35.14-10.7,0-6.11-.06-10.78-.19-14.02.83.06,1.73.1,2.69.1l2.78-.1c.16,1.28.26,2.64.29,4.08l.19.05c.8-1.57,1.72-2.75,2.76-3.55,1.04-.8,2.44-1.2,4.2-1.2,1.5,0,2.79.22,3.86.65,1.07.43,1.9.98,2.47,1.63.58.66,1.03,1.54,1.37,2.66s.54,2.17.62,3.14c.08.98.12,2.2.12,3.67,0,4.45.05,8.98.14,13.58Z" style="fill:#1d1d1b;"/><path d="m893.76,598.18c0,4-1.12,7.24-3.36,9.72-2.24,2.48-5.22,3.72-8.93,3.72s-6.69-1.25-8.93-3.74c-2.24-2.5-3.36-5.76-3.36-9.79s1.14-7.04,3.41-9.41c2.27-2.37,5.23-3.55,8.88-3.55s6.61,1.18,8.88,3.55c2.27,2.37,3.41,5.54,3.41,9.5Zm-5.95,0c0-2.3-.53-4.07-1.58-5.3-1.06-1.23-2.62-1.85-4.7-1.85s-3.66.62-4.75,1.87c-1.09,1.25-1.63,3.01-1.63,5.28s.54,4.06,1.63,5.47c1.09,1.41,2.66,2.11,4.7,2.11s3.62-.7,4.7-2.11c1.09-1.41,1.63-3.23,1.63-5.47Z" style="fill:#1d1d1b;"/><path d="m920.54,610.75c-1.09-.06-2.11-.1-3.07-.1l-3.41.1c.13-4.25.19-8.48.19-12.67,0-2.66-.24-4.42-.72-5.28-.48-.86-1.68-1.3-3.6-1.3s-3.55.64-4.7,1.92c.1,1.12.14,3.49.14,7.1,0,4.38.06,7.79.19,10.22-1.09-.06-2.24-.1-3.46-.1l-3.02.1c.1-2.78.14-6.35.14-10.7,0-6.11-.06-10.78-.19-14.02.83.06,1.73.1,2.69.1l2.78-.1c.16,1.28.26,2.64.29,4.08l.19.05c.8-1.57,1.72-2.75,2.76-3.55,1.04-.8,2.44-1.2,4.2-1.2,1.5,0,2.79.22,3.86.65,1.07.43,1.9.98,2.47,1.63.58.66,1.03,1.54,1.37,2.66s.54,2.17.62,3.14c.08.98.12,2.2.12,3.67,0,4.45.05,8.98.14,13.58Z" style="fill:#1d1d1b;"/><path d="m960.91,597.98c0,3.71-1.1,6.91-3.29,9.6-2.19,2.69-4.89,4.03-8.09,4.03-1.47,0-2.71-.26-3.72-.77-1.01-.51-1.93-1.39-2.76-2.64l-.14.05c.1,1.22.14,3.18.14,5.9,0,1.28.05,3.22.14,5.81-1.15-.06-2.27-.1-3.36-.1s-2.08.03-3.07.1c.13-3.49.19-10.16.19-20.02,0-7.52-.08-12.16-.24-13.92.67.06,1.62.1,2.83.1,1.06,0,1.95-.03,2.69-.1.16,1.38.24,2.69.24,3.94h.14c1.47-3.23,4.03-4.85,7.68-4.85,3.39,0,6.01,1.12,7.85,3.36,1.84,2.24,2.76,5.41,2.76,9.5Zm-6.14.1c0-4.58-1.89-6.86-5.66-6.86-2.85,0-4.91.69-6.19,2.06.13,1.15.19,2.83.19,5.04s-.08,3.97-.24,5.47c1.47,1.15,3.42,1.73,5.86,1.73,1.86,0,3.33-.67,4.42-2.02,1.09-1.34,1.63-3.15,1.63-5.42Z" style="fill:#1d1d1b;"/><path d="m987.5,586.03c-.16,2.85-.24,7.04-.24,12.58,0,4.51.06,8.56.19,12.14-1.02-.06-1.89-.1-2.59-.1-.96,0-1.92.03-2.88.1-.13-1.12-.19-2.43-.19-3.94l-.14-.05c-1.31,3.1-3.5,4.66-6.58,4.66-2.62,0-4.78-.86-6.46-2.59-1.68-1.73-2.52-4.54-2.52-8.45,0-5.95-.08-10.74-.24-14.35.86.06,1.9.1,3.12.1,1.09,0,2.24-.03,3.46-.1-.13,1.95-.19,6.16-.19,12.62,0,2.66.3,4.43.89,5.33.59.9,1.77,1.34,3.53,1.34,1.95,0,3.47-.62,4.56-1.87-.06-1.18-.1-3.6-.1-7.25,0-4.06-.06-7.46-.19-10.18,1.34.06,2.48.1,3.41.1,1.28,0,2.33-.03,3.17-.1Z" style="fill:#1d1d1b;"/><path d="m1017.26,598.18c0,4-1.12,7.24-3.36,9.72-2.24,2.48-5.22,3.72-8.93,3.72s-6.69-1.25-8.93-3.74c-2.24-2.5-3.36-5.76-3.36-9.79s1.13-7.04,3.41-9.41c2.27-2.37,5.23-3.55,8.88-3.55s6.61,1.18,8.88,3.55c2.27,2.37,3.41,5.54,3.41,9.5Zm-8.98-15.89c-.9-.03-1.95-.05-3.17-.05-1.44,0-2.48.02-3.12.05-1.34-2.05-3.15-4.4-5.42-7.06,1.28.03,2.64.05,4.08.05,1.76,0,3.15-.02,4.18-.05.93,2.24,2.08,4.59,3.46,7.06Zm3.02,15.89c0-2.3-.53-4.07-1.58-5.3-1.06-1.23-2.62-1.85-4.7-1.85s-3.67.62-4.75,1.87c-1.09,1.25-1.63,3.01-1.63,5.28s.54,4.06,1.63,5.47c1.09,1.41,2.66,2.11,4.7,2.11s3.62-.7,4.7-2.11,1.63-3.23,1.63-5.47Z" style="fill:#1d1d1b;"/><path d="m1054.32,600.62h-12.24c-2.27,0-3.79-.1-4.56-.29.38,3.52,2.7,5.28,6.96,5.28,3.49,0,6.08-.48,7.78-1.44,0,1.89.16,3.54.48,4.94-1.86,1.47-4.67,2.21-8.45,2.21-3.97,0-7.1-1.15-9.41-3.46-2.3-2.3-3.46-5.49-3.46-9.55s1.07-7.12,3.22-9.55c2.14-2.43,5.02-3.65,8.64-3.65,7.36,0,11.04,4.51,11.04,13.54v1.97Zm-5.95-3.89c0-2.14-.38-3.66-1.15-4.54-.77-.88-2.11-1.32-4.03-1.32-3.87,0-5.81,1.97-5.81,5.9,1.7-.22,3.62-.34,5.76-.34,1.95,0,3.7.1,5.23.29Z" style="fill:#1d1d1b;"/><path d="m1075.72,603.22c0,2.59-.86,4.59-2.59,6-1.73,1.41-4.14,2.11-7.25,2.11-2.91,0-5.17-.58-6.77-1.73.26-1.44.42-3.18.48-5.23,1.86.8,3.89,1.2,6.1,1.2,1.54,0,2.61-.2,3.22-.6.61-.4.91-1.06.91-1.99,0-.8-.27-1.35-.82-1.66-.54-.3-1.87-.65-3.98-1.03-2.4-.42-4.12-1.18-5.16-2.28-1.04-1.1-1.56-2.62-1.56-4.54,0-2.53.9-4.53,2.71-6s4.38-2.21,7.7-2.21c3.07,0,5.39.64,6.96,1.92-.32.99-.54,2.74-.67,5.23-1.34-.8-3.33-1.2-5.95-1.2-3.17,0-4.75.86-4.75,2.59,0,.8.26,1.35.79,1.66.53.3,1.9.67,4.1,1.08,2.3.42,3.97,1.14,4.99,2.18s1.54,2.54,1.54,4.49Z" style="fill:#1d1d1b;"/><path d="m1097.28,603.22c0,2.59-.86,4.59-2.59,6-1.73,1.41-4.14,2.11-7.25,2.11-2.91,0-5.17-.58-6.77-1.73.26-1.44.42-3.18.48-5.23,1.86.8,3.89,1.2,6.1,1.2,1.54,0,2.61-.2,3.22-.6.61-.4.91-1.06.91-1.99,0-.8-.27-1.35-.82-1.66-.54-.3-1.87-.65-3.98-1.03-2.4-.42-4.12-1.18-5.16-2.28-1.04-1.1-1.56-2.62-1.56-4.54,0-2.53.9-4.53,2.71-6s4.38-2.21,7.7-2.21c3.07,0,5.39.64,6.96,1.92-.32.99-.54,2.74-.67,5.23-1.34-.8-3.33-1.2-5.95-1.2-3.17,0-4.75.86-4.75,2.59,0,.8.26,1.35.79,1.66.53.3,1.9.67,4.1,1.08,2.3.42,3.97,1.14,4.99,2.18s1.54,2.54,1.54,4.49Z" style="fill:#1d1d1b;"/><path d="m1124.4,600.62h-12.24c-2.27,0-3.79-.1-4.56-.29.38,3.52,2.7,5.28,6.96,5.28,3.49,0,6.08-.48,7.78-1.44,0,1.89.16,3.54.48,4.94-1.86,1.47-4.67,2.21-8.45,2.21-3.97,0-7.1-1.15-9.41-3.46-2.3-2.3-3.46-5.49-3.46-9.55s1.07-7.12,3.22-9.55c2.14-2.43,5.02-3.65,8.64-3.65,7.36,0,11.04,4.51,11.04,13.54v1.97Zm-5.95-3.89c0-2.14-.38-3.66-1.15-4.54-.77-.88-2.11-1.32-4.03-1.32-3.87,0-5.81,1.97-5.81,5.9,1.7-.22,3.62-.34,5.76-.34,1.95,0,3.7.1,5.23.29Z" style="fill:#1d1d1b;"/><path d="m1144.65,586.18c-.16,1.6-.24,3.79-.24,6.58-.67-.26-1.71-.38-3.12-.38-1.28,0-2.3.21-3.07.62-.77.42-1.5,1.14-2.21,2.16.13,2.05.19,4,.19,5.86,0,4.26.08,7.5.24,9.74-1.28-.06-2.43-.1-3.46-.1-1.15,0-2.21.03-3.17.1.13-2.82.19-6.51.19-11.09,0-5.73-.08-10.27-.24-13.63,1.54.06,2.48.1,2.83.1,1.06,0,1.9-.03,2.54-.1.16.99.24,2.45.24,4.37l.14.1c.93-1.86,1.83-3.1,2.71-3.72.88-.62,2.21-.94,4.01-.94.93,0,1.73.11,2.4.34Z" style="fill:#1d1d1b;"/><path d="m1169.42,600.62h-12.24c-2.27,0-3.79-.1-4.56-.29.38,3.52,2.7,5.28,6.96,5.28,3.49,0,6.08-.48,7.78-1.44,0,1.89.16,3.54.48,4.94-1.86,1.47-4.67,2.21-8.45,2.21-3.97,0-7.1-1.15-9.41-3.46-2.3-2.3-3.46-5.49-3.46-9.55s1.07-7.12,3.22-9.55c2.14-2.43,5.02-3.65,8.64-3.65,7.36,0,11.04,4.51,11.04,13.54v1.97Zm-5.95-3.89c0-2.14-.38-3.66-1.15-4.54-.77-.88-2.11-1.32-4.03-1.32-3.87,0-5.81,1.97-5.81,5.9,1.7-.22,3.62-.34,5.76-.34,1.95,0,3.7.1,5.23.29Z" style="fill:#1d1d1b;"/><path d="m1203.64,588c-.35,1.12-.61,2.99-.77,5.62-.86-.86-1.75-1.46-2.66-1.78-.91-.32-2.1-.48-3.58-.48-2.21,0-3.92.62-5.14,1.85-1.22,1.23-1.82,2.9-1.82,5.02s.62,3.85,1.85,5.11c1.23,1.26,2.94,1.9,5.11,1.9,2.46,0,4.5-.67,6.1-2.02,0,1.95.18,3.81.53,5.57-1.76,1.7-4.08,2.54-6.96,2.54-3.84,0-6.91-1.24-9.22-3.72-2.3-2.48-3.46-5.64-3.46-9.48s1.16-6.82,3.48-9.24c2.32-2.42,5.43-3.62,9.34-3.62,3.3,0,5.7.91,7.2,2.74Z" style="fill:#1d1d1b;"/><path d="m1227.83,610.75c-1.02-.06-1.86-.1-2.5-.1-.26,0-1.15.03-2.69.1-.32-1.57-.5-2.88-.53-3.94h-.19c-.51,1.6-1.28,2.78-2.3,3.55-1.02.77-2.46,1.15-4.32,1.15-2.53,0-4.52-.66-5.98-1.97-1.46-1.31-2.18-3.15-2.18-5.52,0-2.85,1.05-4.88,3.14-6.1,2.1-1.22,5.35-1.82,9.77-1.82h1.2v-1.25c0-1.47-.34-2.46-1.03-2.95-.69-.5-1.99-.74-3.91-.74-3.68,0-6.22.91-7.63,2.74l-.1-.1c-.13-2.3-.34-3.97-.62-4.99,1.7-2.4,4.62-3.6,8.78-3.6,3.65,0,6.31.8,7.99,2.4,1.68,1.6,2.52,4.13,2.52,7.58v9.07c0,2.11.19,4.27.58,6.48Zm-6.58-6.48v-4.18c-.26.06-1.54.16-3.84.29-1.6.1-2.74.37-3.43.82-.69.45-1.03,1.18-1.03,2.21s.29,1.71.89,2.16c.59.45,1.54.67,2.86.67,2.11,0,3.63-.66,4.56-1.97Z" style="fill:#1d1d1b;"/><path d="m1248.57,586.18c-.16,1.6-.24,3.79-.24,6.58-.67-.26-1.71-.38-3.12-.38-1.28,0-2.3.21-3.07.62-.77.42-1.5,1.14-2.21,2.16.13,2.05.19,4,.19,5.86,0,4.26.08,7.5.24,9.74-1.28-.06-2.43-.1-3.46-.1-1.15,0-2.21.03-3.17.1.13-2.82.19-6.51.19-11.09,0-5.73-.08-10.27-.24-13.63,1.54.06,2.48.1,2.83.1,1.06,0,1.9-.03,2.54-.1.16.99.24,2.45.24,4.37l.14.1c.93-1.86,1.83-3.1,2.71-3.72.88-.62,2.21-.94,4.01-.94.93,0,1.73.11,2.4.34Z" style="fill:#1d1d1b;"/><path d="m1259.37,581.18c-1.54-.06-2.85-.1-3.94-.1-.83,0-2.14.03-3.94.1.03-.83.05-1.84.05-3.02,0-1.31-.03-2.29-.1-2.93,1.66.06,2.98.1,3.94.1,1.06,0,2.38-.03,3.98-.1-.06,1.54-.1,2.51-.1,2.93,0,1.15.03,2.16.1,3.02Zm-.48,4.85c-.19,5.63-.29,9.92-.29,12.86,0,1.02,0,2.19.02,3.5.02,1.31.04,2.79.07,4.44.03,1.65.05,2.95.05,3.91-1.66-.06-2.77-.1-3.31-.1-.48,0-1.55.03-3.22.1,0-1.41.02-3.46.05-6.14.03-2.69.05-4.59.05-5.71,0-2.08-.08-6.37-.24-12.86,1.73.06,2.85.1,3.36.1.7,0,1.86-.03,3.46-.1Z" style="fill:#1d1d1b;"/><path d="m1284.38,588c-.35,1.12-.61,2.99-.77,5.62-.86-.86-1.75-1.46-2.66-1.78-.91-.32-2.1-.48-3.58-.48-2.21,0-3.92.62-5.14,1.85-1.22,1.23-1.82,2.9-1.82,5.02s.62,3.85,1.85,5.11c1.23,1.26,2.94,1.9,5.11,1.9,2.46,0,4.5-.67,6.1-2.02,0,1.95.18,3.81.53,5.57-1.76,1.7-4.08,2.54-6.96,2.54-3.84,0-6.91-1.24-9.22-3.72-2.3-2.48-3.46-5.64-3.46-9.48s1.16-6.82,3.48-9.24c2.32-2.42,5.43-3.62,9.34-3.62,3.3,0,5.7.91,7.2,2.74Z" style="fill:#1d1d1b;"/><path d="m1308.57,610.75c-1.02-.06-1.86-.1-2.5-.1-.26,0-1.15.03-2.69.1-.32-1.57-.5-2.88-.53-3.94h-.19c-.51,1.6-1.28,2.78-2.3,3.55-1.02.77-2.46,1.15-4.32,1.15-2.53,0-4.52-.66-5.98-1.97-1.46-1.31-2.18-3.15-2.18-5.52,0-2.85,1.05-4.88,3.14-6.1,2.1-1.22,5.35-1.82,9.77-1.82h1.2v-1.25c0-1.47-.34-2.46-1.03-2.95-.69-.5-1.99-.74-3.91-.74-3.68,0-6.22.91-7.63,2.74l-.1-.1c-.13-2.3-.34-3.97-.62-4.99,1.7-2.4,4.62-3.6,8.78-3.6,3.65,0,6.31.8,7.99,2.4,1.68,1.6,2.52,4.13,2.52,7.58v9.07c0,2.11.19,4.27.58,6.48Zm-6.58-6.48v-4.18c-.26.06-1.54.16-3.84.29-1.6.1-2.74.37-3.43.82-.69.45-1.03,1.18-1.03,2.21s.29,1.71.89,2.16c.59.45,1.54.67,2.86.67,2.11,0,3.63-.66,4.56-1.97Z" style="fill:#1d1d1b;"/><path d="m1329.3,592.32c-.26-.03-1.38-.1-3.36-.19-1.98-.1-3.33-.26-4.03-.48l-.14.19c.38,2.11.58,5.07.58,8.88,0,1.95.22,3.18.67,3.7.45.51,1.54.77,3.26.77,1.09,0,2-.06,2.74-.19-.03.48-.05,1.31-.05,2.5,0,.32.08,1.33.24,3.02-1.63.45-3.46.67-5.47.67-2.66,0-4.58-.67-5.76-2.02s-1.78-3.47-1.78-6.38c0-4.03.26-7.7.77-10.99l-.14-.1c-.45.16-1,.28-1.66.36-.66.08-1.35.14-2.09.17-.74.03-1.22.06-1.44.1.1-1.22.14-2.21.14-2.98,0-1.21-.05-2.27-.14-3.17.22.03,1.07.07,2.54.12s2.43.14,2.88.26l.1-.05c-.1-.29-.17-.73-.22-1.32-.05-.59-.1-1.33-.14-2.21s-.07-1.43-.07-1.66c2.4-.06,4.33-.26,5.81-.58-.06.48-.12,1.38-.17,2.69-.05,1.31-.15,2.34-.31,3.07l.14.1c.51-.16,1.75-.26,3.72-.31s3.1-.09,3.38-.12c-.1.86-.14,1.97-.14,3.31,0,.74.05,1.68.14,2.83Z" style="fill:#1d1d1b;"/><path d="m1357.14,598.18c0,4-1.12,7.24-3.36,9.72-2.24,2.48-5.22,3.72-8.93,3.72s-6.69-1.25-8.93-3.74c-2.24-2.5-3.36-5.76-3.36-9.79s1.13-7.04,3.41-9.41c2.27-2.37,5.23-3.55,8.88-3.55s6.61,1.18,8.88,3.55c2.27,2.37,3.41,5.54,3.41,9.5Zm-5.95,0c0-2.3-.53-4.07-1.58-5.3-1.06-1.23-2.62-1.85-4.7-1.85s-3.67.62-4.75,1.87c-1.09,1.25-1.63,3.01-1.63,5.28s.54,4.06,1.63,5.47c1.09,1.41,2.66,2.11,4.7,2.11s3.62-.7,4.7-2.11,1.63-3.23,1.63-5.47Z" style="fill:#1d1d1b;"/><path d="m567.56,668.35c-1.02-.06-1.86-.1-2.5-.1-.26,0-1.15.03-2.69.1-.32-1.57-.5-2.88-.53-3.94h-.19c-.51,1.6-1.28,2.78-2.3,3.55-1.02.77-2.46,1.15-4.32,1.15-2.53,0-4.52-.66-5.98-1.97-1.46-1.31-2.18-3.15-2.18-5.52,0-2.85,1.05-4.88,3.14-6.1,2.1-1.22,5.35-1.82,9.77-1.82h1.2v-1.25c0-1.47-.34-2.46-1.03-2.95-.69-.5-1.99-.74-3.91-.74-3.68,0-6.22.91-7.63,2.74l-.1-.1c-.13-2.3-.34-3.97-.62-4.99,1.7-2.4,4.62-3.6,8.78-3.6,3.65,0,6.31.8,7.99,2.4,1.68,1.6,2.52,4.13,2.52,7.58v9.07c0,2.11.19,4.27.58,6.48Zm-6.58-6.48v-4.18c-.26.06-1.54.16-3.84.29-1.6.1-2.74.37-3.43.82-.69.45-1.03,1.18-1.03,2.21s.3,1.71.89,2.16c.59.45,1.54.67,2.86.67,2.11,0,3.63-.66,4.56-1.97Z" style="fill:#1d1d1b;"/><path d="m602.26,645.6c-.35,1.12-.61,2.99-.77,5.62-.86-.86-1.75-1.46-2.66-1.78-.91-.32-2.1-.48-3.58-.48-2.21,0-3.92.62-5.14,1.85-1.22,1.23-1.82,2.9-1.82,5.02s.62,3.85,1.85,5.11c1.23,1.26,2.94,1.9,5.11,1.9,2.46,0,4.5-.67,6.1-2.02,0,1.95.18,3.81.53,5.57-1.76,1.7-4.08,2.54-6.96,2.54-3.84,0-6.91-1.24-9.22-3.72-2.3-2.48-3.46-5.64-3.46-9.48s1.16-6.82,3.48-9.24c2.32-2.42,5.43-3.62,9.34-3.62,3.3,0,5.7.91,7.2,2.74Z" style="fill:#1d1d1b;"/><path d="m626.45,668.35c-1.02-.06-1.86-.1-2.5-.1-.26,0-1.15.03-2.69.1-.32-1.57-.5-2.88-.53-3.94h-.19c-.51,1.6-1.28,2.78-2.3,3.55-1.02.77-2.46,1.15-4.32,1.15-2.53,0-4.52-.66-5.98-1.97-1.46-1.31-2.18-3.15-2.18-5.52,0-2.85,1.05-4.88,3.14-6.1,2.1-1.22,5.35-1.82,9.77-1.82h1.2v-1.25c0-1.47-.34-2.46-1.03-2.95-.69-.5-1.99-.74-3.91-.74-3.68,0-6.22.91-7.63,2.74l-.1-.1c-.13-2.3-.34-3.97-.62-4.99,1.7-2.4,4.62-3.6,8.78-3.6,3.65,0,6.31.8,7.99,2.4,1.68,1.6,2.52,4.13,2.52,7.58v9.07c0,2.11.19,4.27.58,6.48Zm-6.58-6.48v-4.18c-.26.06-1.54.16-3.84.29-1.6.1-2.74.37-3.43.82-.69.45-1.03,1.18-1.03,2.21s.3,1.71.89,2.16c.59.45,1.54.67,2.86.67,2.11,0,3.63-.66,4.56-1.97Z" style="fill:#1d1d1b;"/><path d="m653.57,643.63c-.16,2.85-.24,7.04-.24,12.58,0,4.51.06,8.56.19,12.14-1.02-.06-1.89-.1-2.59-.1-.96,0-1.92.03-2.88.1-.13-1.12-.19-2.43-.19-3.94l-.14-.05c-1.31,3.1-3.5,4.66-6.58,4.66-2.62,0-4.78-.86-6.46-2.59-1.68-1.73-2.52-4.54-2.52-8.45,0-5.95-.08-10.74-.24-14.35.86.07,1.9.1,3.12.1,1.09,0,2.24-.03,3.46-.1-.13,1.95-.19,6.16-.19,12.62,0,2.66.3,4.43.89,5.33.59.9,1.77,1.34,3.53,1.34,1.95,0,3.47-.62,4.56-1.87-.06-1.18-.1-3.6-.1-7.25,0-4.06-.06-7.46-.19-10.18,1.34.07,2.48.1,3.41.1,1.28,0,2.34-.03,3.17-.1Z" style="fill:#1d1d1b;"/><path d="m676.04,660.82c0,2.59-.86,4.59-2.59,6s-4.14,2.11-7.25,2.11c-2.91,0-5.17-.58-6.77-1.73.26-1.44.42-3.18.48-5.23,1.86.8,3.89,1.2,6.1,1.2,1.54,0,2.61-.2,3.22-.6.61-.4.91-1.06.91-1.99,0-.8-.27-1.35-.82-1.66-.54-.3-1.87-.65-3.98-1.03-2.4-.42-4.12-1.18-5.16-2.28-1.04-1.1-1.56-2.62-1.56-4.54,0-2.53.9-4.53,2.71-6,1.81-1.47,4.38-2.21,7.7-2.21,3.07,0,5.39.64,6.96,1.92-.32.99-.54,2.74-.67,5.23-1.34-.8-3.33-1.2-5.95-1.2-3.17,0-4.75.86-4.75,2.59,0,.8.26,1.35.79,1.66.53.3,1.9.66,4.1,1.08,2.3.42,3.97,1.14,4.99,2.18,1.02,1.04,1.54,2.54,1.54,4.49Z" style="fill:#1d1d1b;"/><path d="m700.95,668.35c-1.02-.06-1.86-.1-2.5-.1-.26,0-1.15.03-2.69.1-.32-1.57-.5-2.88-.53-3.94h-.19c-.51,1.6-1.28,2.78-2.3,3.55-1.02.77-2.46,1.15-4.32,1.15-2.53,0-4.52-.66-5.98-1.97-1.46-1.31-2.18-3.15-2.18-5.52,0-2.85,1.05-4.88,3.14-6.1,2.1-1.22,5.35-1.82,9.77-1.82h1.2v-1.25c0-1.47-.34-2.46-1.03-2.95-.69-.5-1.99-.74-3.91-.74-3.68,0-6.22.91-7.63,2.74l-.1-.1c-.13-2.3-.34-3.97-.62-4.99,1.7-2.4,4.62-3.6,8.78-3.6,3.65,0,6.31.8,7.99,2.4,1.68,1.6,2.52,4.13,2.52,7.58v9.07c0,2.11.19,4.27.58,6.48Zm-6.58-6.48v-4.18c-.26.06-1.54.16-3.84.29-1.6.1-2.74.37-3.43.82-.69.45-1.03,1.18-1.03,2.21s.3,1.71.89,2.16c.59.45,1.54.67,2.86.67,2.11,0,3.63-.66,4.56-1.97Z" style="fill:#1d1d1b;"/><path d="m740.11,632.83c-.22,6.43-.34,13.46-.34,21.07,0,4.64.06,9.46.19,14.45-1.28-.06-2.08-.1-2.4-.1-.38,0-1.34.03-2.88.1-.19-1.44-.29-2.86-.29-4.27h-.19c-.7,1.7-1.57,2.98-2.59,3.84-1.02.86-2.51,1.3-4.46,1.3-3.39,0-6.16-1.3-8.3-3.89-2.14-2.59-3.22-5.76-3.22-9.5,0-4.03,1.03-7.22,3.1-9.58,2.06-2.35,4.82-3.53,8.28-3.53,3.07,0,5.28,1.23,6.62,3.7l.14-.1c-.13-.64-.19-2.85-.19-6.62s-.05-6.22-.14-6.86c1.34.06,2.54.1,3.6.1,1.15,0,2.18-.03,3.07-.1Zm-6.38,27.98c-.1-1.25-.14-2.94-.14-5.09,0-1.82.05-3.5.14-5.04-.7-.7-1.5-1.19-2.38-1.46-.88-.27-2.04-.41-3.48-.41-1.98,0-3.5.62-4.54,1.85-1.04,1.23-1.56,2.94-1.56,5.11s.55,4.02,1.66,5.35c1.1,1.33,2.66,1.99,4.68,1.99,2.43,0,4.3-.77,5.62-2.3Z" style="fill:#1d1d1b;"/><path d="m768.1,658.22h-12.24c-2.27,0-3.79-.1-4.56-.29.38,3.52,2.7,5.28,6.96,5.28,3.49,0,6.08-.48,7.78-1.44,0,1.89.16,3.54.48,4.94-1.86,1.47-4.67,2.21-8.45,2.21-3.97,0-7.1-1.15-9.41-3.46-2.3-2.3-3.46-5.49-3.46-9.55s1.07-7.12,3.22-9.55c2.14-2.43,5.02-3.65,8.64-3.65,7.36,0,11.04,4.51,11.04,13.54v1.97Zm-5.95-3.89c0-2.14-.38-3.66-1.15-4.54s-2.11-1.32-4.03-1.32c-3.87,0-5.81,1.97-5.81,5.9,1.7-.22,3.62-.34,5.76-.34,1.95,0,3.7.1,5.23.29Z" style="fill:#1d1d1b;"/><path d="m780.39,632.83c-.19,4.35-.29,11.87-.29,22.56,0,4.29.08,8.61.24,12.96-.9-.06-1.98-.1-3.26-.1-1.47,0-2.62.03-3.46.1.19-5.28.29-9.6.29-12.96,0-11.39-.1-18.91-.29-22.56,1.22.06,2.32.1,3.31.1,1.7,0,2.85-.03,3.46-.1Z" style="fill:#1d1d1b;"/><path d="m794.11,632.83c-.19,4.35-.29,11.87-.29,22.56,0,4.29.08,8.61.24,12.96-.9-.06-1.98-.1-3.26-.1-1.47,0-2.62.03-3.46.1.19-5.28.29-9.6.29-12.96,0-11.39-.1-18.91-.29-22.56,1.22.06,2.32.1,3.31.1,1.7,0,2.85-.03,3.46-.1Z" style="fill:#1d1d1b;"/><path d="m822.53,658.22h-12.24c-2.27,0-3.79-.1-4.56-.29.38,3.52,2.7,5.28,6.96,5.28,3.49,0,6.08-.48,7.78-1.44,0,1.89.16,3.54.48,4.94-1.86,1.47-4.67,2.21-8.45,2.21-3.97,0-7.1-1.15-9.41-3.46-2.3-2.3-3.46-5.49-3.46-9.55s1.07-7.12,3.22-9.55c2.14-2.43,5.02-3.65,8.64-3.65,7.36,0,11.04,4.51,11.04,13.54v1.97Zm-5.95-3.89c0-2.14-.38-3.66-1.15-4.54s-2.11-1.32-4.03-1.32c-3.87,0-5.81,1.97-5.81,5.9,1.7-.22,3.62-.34,5.76-.34,1.95,0,3.7.1,5.23.29Z" style="fill:#1d1d1b;"/><path d="m853.1,649.92c-.26-.03-1.38-.1-3.36-.19-1.98-.1-3.33-.26-4.03-.48l-.14.19c.38,2.11.58,5.07.58,8.88,0,1.95.22,3.18.67,3.7.45.51,1.54.77,3.26.77,1.09,0,2-.06,2.74-.19-.03.48-.05,1.31-.05,2.5,0,.32.08,1.33.24,3.02-1.63.45-3.46.67-5.47.67-2.66,0-4.58-.67-5.76-2.02-1.18-1.34-1.78-3.47-1.78-6.38,0-4.03.26-7.7.77-10.99l-.14-.1c-.45.16-1,.28-1.66.36-.66.08-1.35.14-2.09.17-.74.03-1.22.06-1.44.1.1-1.22.14-2.21.14-2.98,0-1.22-.05-2.27-.14-3.17.22.03,1.07.07,2.54.12,1.47.05,2.43.14,2.88.26l.1-.05c-.1-.29-.17-.73-.22-1.32-.05-.59-.1-1.33-.14-2.21-.05-.88-.07-1.43-.07-1.66,2.4-.06,4.34-.26,5.81-.58-.06.48-.12,1.38-.17,2.69-.05,1.31-.15,2.34-.31,3.07l.14.1c.51-.16,1.75-.26,3.72-.31,1.97-.05,3.1-.09,3.38-.12-.1.86-.14,1.97-.14,3.31,0,.74.05,1.68.14,2.83Z" style="fill:#1d1d1b;"/><path d="m879.12,643.63c-.16,2.85-.24,7.04-.24,12.58,0,4.51.06,8.56.19,12.14-1.02-.06-1.89-.1-2.59-.1-.96,0-1.92.03-2.88.1-.13-1.12-.19-2.43-.19-3.94l-.14-.05c-1.31,3.1-3.5,4.66-6.58,4.66-2.62,0-4.78-.86-6.46-2.59-1.68-1.73-2.52-4.54-2.52-8.45,0-5.95-.08-10.74-.24-14.35.86.07,1.9.1,3.12.1,1.09,0,2.24-.03,3.46-.1-.13,1.95-.19,6.16-.19,12.62,0,2.66.3,4.43.89,5.33.59.9,1.77,1.34,3.53,1.34,1.95,0,3.47-.62,4.56-1.87-.06-1.18-.1-3.6-.1-7.25,0-4.06-.06-7.46-.19-10.18,1.34.07,2.48.1,3.41.1,1.28,0,2.34-.03,3.17-.1Z" style="fill:#1d1d1b;"/><path d="m907.15,658.22h-12.24c-2.27,0-3.79-.1-4.56-.29.38,3.52,2.7,5.28,6.96,5.28,3.49,0,6.08-.48,7.78-1.44,0,1.89.16,3.54.48,4.94-1.86,1.47-4.67,2.21-8.45,2.21-3.97,0-7.1-1.15-9.41-3.46-2.3-2.3-3.46-5.49-3.46-9.55s1.07-7.12,3.22-9.55c2.14-2.43,5.02-3.65,8.64-3.65,7.36,0,11.04,4.51,11.04,13.54v1.97Zm-5.95-3.89c0-2.14-.38-3.66-1.15-4.54s-2.11-1.32-4.03-1.32c-3.87,0-5.81,1.97-5.81,5.9,1.7-.22,3.62-.34,5.76-.34,1.95,0,3.7.1,5.23.29Z" style="fill:#1d1d1b;"/><path d="m930.1,638.78c-1.54-.06-2.85-.1-3.94-.1-.83,0-2.14.03-3.94.1.03-.83.05-1.84.05-3.02,0-1.31-.03-2.29-.1-2.93,1.66.06,2.98.1,3.94.1,1.06,0,2.38-.03,3.98-.1-.06,1.54-.1,2.51-.1,2.93,0,1.15.03,2.16.1,3.02Zm-.48,4.85c-.19,5.63-.29,9.92-.29,12.86,0,1.02,0,2.19.02,3.5.02,1.31.04,2.79.07,4.44.03,1.65.05,2.95.05,3.91-1.66-.06-2.77-.1-3.31-.1-.48,0-1.55.03-3.22.1,0-1.41.02-3.46.05-6.14.03-2.69.05-4.59.05-5.71,0-2.08-.08-6.37-.24-12.86,1.73.07,2.85.1,3.36.1.7,0,1.86-.03,3.46-.1Z" style="fill:#1d1d1b;"/><path d="m970.7,668.35c-1.54-.06-2.56-.1-3.07-.1s-1.63.03-3.36.1c.13-2.85.19-7.12.19-12.82,0-2.56-.23-4.25-.7-5.06-.46-.82-1.56-1.22-3.29-1.22s-3.18.54-4.18,1.63c.1,2.24.14,4.67.14,7.3,0,4.67.06,8.06.19,10.18-1.66-.06-2.69-.1-3.07-.1-1.06,0-2.13.03-3.22.1.13-3.58.19-7.78.19-12.58,0-2.78-.2-4.57-.6-5.35-.4-.78-1.48-1.18-3.24-1.18-1.92,0-3.36.59-4.32,1.78.1,2.3.14,4.67.14,7.1,0,3.65.06,7.06.19,10.22-1.6-.06-2.7-.1-3.31-.1-.16,0-1.2.03-3.12.1.1-4.13.14-8.18.14-12.14,0-6.62-.05-10.82-.14-12.58.67.07,1.58.1,2.74.1s2.06-.03,2.64-.1c.16,2.08.26,3.41.29,3.98l.19.05c.8-1.66,1.7-2.86,2.69-3.58.99-.72,2.37-1.08,4.13-1.08,3.14,0,5.25,1.49,6.34,4.46,1.41-2.98,3.87-4.46,7.39-4.46,2.88,0,4.9.92,6.07,2.76,1.17,1.84,1.75,4.63,1.75,8.38,0,5.82.06,10.56.19,14.21Z" style="fill:#1d1d1b;"/><path d="m1000.99,655.58c0,3.71-1.1,6.91-3.29,9.6-2.19,2.69-4.89,4.03-8.09,4.03-1.47,0-2.71-.26-3.72-.77s-1.93-1.39-2.76-2.64l-.14.05c.1,1.22.14,3.18.14,5.9,0,1.28.05,3.22.14,5.81-1.15-.06-2.27-.1-3.36-.1s-2.08.03-3.07.1c.13-3.49.19-10.16.19-20.02,0-7.52-.08-12.16-.24-13.92.67.07,1.62.1,2.83.1,1.06,0,1.95-.03,2.69-.1.16,1.38.24,2.69.24,3.94h.14c1.47-3.23,4.03-4.85,7.68-4.85,3.39,0,6.01,1.12,7.85,3.36,1.84,2.24,2.76,5.41,2.76,9.5Zm-6.14.1c0-4.58-1.89-6.86-5.66-6.86-2.85,0-4.91.69-6.19,2.06.13,1.15.19,2.83.19,5.04s-.08,3.97-.24,5.47c1.47,1.15,3.42,1.73,5.86,1.73,1.86,0,3.33-.67,4.42-2.02,1.09-1.34,1.63-3.15,1.63-5.42Z" style="fill:#1d1d1b;"/><path d="m1029.65,655.78c0,4-1.12,7.24-3.36,9.72-2.24,2.48-5.22,3.72-8.93,3.72s-6.69-1.25-8.93-3.74c-2.24-2.5-3.36-5.76-3.36-9.79s1.13-7.04,3.41-9.41,5.23-3.55,8.88-3.55,6.61,1.18,8.88,3.55c2.27,2.37,3.41,5.54,3.41,9.5Zm-5.95,0c0-2.3-.53-4.07-1.58-5.3-1.06-1.23-2.62-1.85-4.7-1.85s-3.67.62-4.75,1.87c-1.09,1.25-1.63,3.01-1.63,5.28s.54,4.06,1.63,5.47c1.09,1.41,2.66,2.11,4.7,2.11s3.62-.7,4.7-2.11c1.09-1.41,1.63-3.23,1.63-5.47Z" style="fill:#1d1d1b;"/><path d="m1051.05,660.82c0,2.59-.86,4.59-2.59,6-1.73,1.41-4.14,2.11-7.25,2.11-2.91,0-5.17-.58-6.77-1.73.26-1.44.42-3.18.48-5.23,1.86.8,3.89,1.2,6.1,1.2,1.54,0,2.61-.2,3.22-.6.61-.4.91-1.06.91-1.99,0-.8-.27-1.35-.82-1.66-.54-.3-1.87-.65-3.98-1.03-2.4-.42-4.12-1.18-5.16-2.28-1.04-1.1-1.56-2.62-1.56-4.54,0-2.53.9-4.53,2.71-6,1.81-1.47,4.38-2.21,7.7-2.21,3.07,0,5.39.64,6.96,1.92-.32.99-.54,2.74-.67,5.23-1.34-.8-3.33-1.2-5.95-1.2-3.17,0-4.75.86-4.75,2.59,0,.8.26,1.35.79,1.66.53.3,1.9.66,4.1,1.08,2.3.42,3.97,1.14,4.99,2.18,1.02,1.04,1.54,2.54,1.54,4.49Z" style="fill:#1d1d1b;"/><path d="m1071.69,649.92c-.26-.03-1.38-.1-3.36-.19-1.98-.1-3.33-.26-4.03-.48l-.14.19c.38,2.11.58,5.07.58,8.88,0,1.95.22,3.18.67,3.7s1.54.77,3.26.77c1.09,0,2-.06,2.74-.19-.03.48-.05,1.31-.05,2.5,0,.32.08,1.33.24,3.02-1.63.45-3.46.67-5.47.67-2.66,0-4.58-.67-5.76-2.02-1.18-1.34-1.78-3.47-1.78-6.38,0-4.03.26-7.7.77-10.99l-.14-.1c-.45.16-1,.28-1.66.36-.66.08-1.35.14-2.09.17-.74.03-1.22.06-1.44.1.1-1.22.14-2.21.14-2.98,0-1.22-.05-2.27-.14-3.17.22.03,1.07.07,2.54.12s2.43.14,2.88.26l.1-.05c-.1-.29-.17-.73-.22-1.32-.05-.59-.1-1.33-.14-2.21-.05-.88-.07-1.43-.07-1.66,2.4-.06,4.33-.26,5.81-.58-.06.48-.12,1.38-.17,2.69-.05,1.31-.15,2.34-.31,3.07l.14.1c.51-.16,1.75-.26,3.72-.31s3.1-.09,3.38-.12c-.1.86-.14,1.97-.14,3.31,0,.74.05,1.68.14,2.83Z" style="fill:#1d1d1b;"/><path d="m1095.84,668.35c-1.02-.06-1.86-.1-2.5-.1-.26,0-1.15.03-2.69.1-.32-1.57-.5-2.88-.53-3.94h-.19c-.51,1.6-1.28,2.78-2.3,3.55-1.02.77-2.46,1.15-4.32,1.15-2.53,0-4.52-.66-5.98-1.97-1.46-1.31-2.18-3.15-2.18-5.52,0-2.85,1.05-4.88,3.14-6.1,2.1-1.22,5.35-1.82,9.77-1.82h1.2v-1.25c0-1.47-.34-2.46-1.03-2.95s-1.99-.74-3.91-.74c-3.68,0-6.22.91-7.63,2.74l-.1-.1c-.13-2.3-.34-3.97-.62-4.99,1.7-2.4,4.62-3.6,8.78-3.6,3.65,0,6.31.8,7.99,2.4,1.68,1.6,2.52,4.13,2.52,7.58v9.07c0,2.11.19,4.27.58,6.48Zm-6.58-6.48v-4.18c-.26.06-1.54.16-3.84.29-1.6.1-2.74.37-3.43.82-.69.45-1.03,1.18-1.03,2.21s.29,1.71.89,2.16c.59.45,1.54.67,2.86.67,2.11,0,3.63-.66,4.56-1.97Z" style="fill:#1d1d1b;"/><path d="m1119.59,643.63c0,2.43-.26,4.08-.77,4.94-.38.61-.86,1.3-1.42,2.06-.56.77-1.05,1.42-1.46,1.94-.42.53-1.06,1.34-1.92,2.45-.86,1.1-1.5,1.91-1.92,2.42-2.18,2.88-3.73,4.69-4.66,5.42l.14.14c1.6-.22,3.49-.34,5.66-.34,3.07,0,5.09-.05,6.05-.14-.1,1.63-.14,2.54-.14,2.74,0,.83.05,1.86.14,3.07-4.1-.03-7.25-.05-9.46-.05-4.61,0-7.87.02-9.79.05,0-2.3.26-3.86.77-4.66,1.47-2.21,3.78-5.2,6.91-8.98.26-.32.61-.78,1.06-1.39.45-.61.79-1.06,1.03-1.37.24-.3.52-.66.84-1.06.32-.4.59-.71.82-.94s.42-.38.58-.48l-.14-.19c-1.09.16-3.18.24-6.29.24-2.43,0-4.27.05-5.52.14.1-.86.14-1.84.14-2.93,0-1.34-.05-2.38-.14-3.12.9.03,4.3.05,10.22.05,5.47,0,8.56-.02,9.26-.05Z" style="fill:#1d1d1b;"/><path d="m1131.69,638.78c-1.54-.06-2.85-.1-3.94-.1-.83,0-2.14.03-3.94.1.03-.83.05-1.84.05-3.02,0-1.31-.03-2.29-.1-2.93,1.66.06,2.98.1,3.94.1,1.06,0,2.38-.03,3.98-.1-.06,1.54-.1,2.51-.1,2.93,0,1.15.03,2.16.1,3.02Zm-.48,4.85c-.19,5.63-.29,9.92-.29,12.86,0,1.02,0,2.19.02,3.5.02,1.31.04,2.79.07,4.44.03,1.65.05,2.95.05,3.91-1.66-.06-2.77-.1-3.31-.1-.48,0-1.55.03-3.22.1,0-1.41.02-3.46.05-6.14.03-2.69.05-4.59.05-5.71,0-2.08-.08-6.37-.24-12.86,1.73.07,2.85.1,3.36.1.7,0,1.86-.03,3.46-.1Z" style="fill:#1d1d1b;"/><path d="m1161.26,655.78c0,4-1.12,7.24-3.36,9.72-2.24,2.48-5.22,3.72-8.93,3.72s-6.69-1.25-8.93-3.74c-2.24-2.5-3.36-5.76-3.36-9.79s1.13-7.04,3.41-9.41,5.23-3.55,8.88-3.55,6.61,1.18,8.88,3.55c2.27,2.37,3.41,5.54,3.41,9.5Zm-5.95,0c0-2.3-.53-4.07-1.58-5.3-1.06-1.23-2.62-1.85-4.7-1.85s-3.67.62-4.75,1.87c-1.09,1.25-1.63,3.01-1.63,5.28s.54,4.06,1.63,5.47c1.09,1.41,2.66,2.11,4.7,2.11s3.62-.7,4.7-2.11c1.09-1.41,1.63-3.23,1.63-5.47Z" style="fill:#1d1d1b;"/><path d="m1188.04,668.35c-1.09-.06-2.11-.1-3.07-.1l-3.41.1c.13-4.26.19-8.48.19-12.67,0-2.66-.24-4.42-.72-5.28-.48-.86-1.68-1.3-3.6-1.3s-3.55.64-4.7,1.92c.1,1.12.14,3.49.14,7.1,0,4.38.06,7.79.19,10.22-1.09-.06-2.24-.1-3.46-.1l-3.02.1c.1-2.78.14-6.35.14-10.7,0-6.11-.06-10.78-.19-14.02.83.07,1.73.1,2.69.1l2.78-.1c.16,1.28.25,2.64.29,4.08l.19.05c.8-1.57,1.72-2.75,2.76-3.55,1.04-.8,2.44-1.2,4.2-1.2,1.5,0,2.79.22,3.86.65,1.07.43,1.9.98,2.47,1.63.58.66,1.03,1.54,1.37,2.66.34,1.12.54,2.17.62,3.14.08.98.12,2.2.12,3.67,0,4.45.05,8.98.14,13.58Z" style="fill:#1d1d1b;"/><path d="m1201.82,638.78c-1.54-.06-2.85-.1-3.94-.1-.83,0-2.14.03-3.94.1.03-.83.05-1.84.05-3.02,0-1.31-.03-2.29-.1-2.93,1.66.06,2.98.1,3.94.1,1.06,0,2.38-.03,3.98-.1-.06,1.54-.1,2.51-.1,2.93,0,1.15.03,2.16.1,3.02Zm-.48,4.85c-.19,5.63-.29,9.92-.29,12.86,0,1.02,0,2.19.02,3.5.02,1.31.04,2.79.07,4.44.03,1.65.05,2.95.05,3.91-1.66-.06-2.77-.1-3.31-.1-.48,0-1.55.03-3.22.1,0-1.41.02-3.46.05-6.14.03-2.69.05-4.59.05-5.71,0-2.08-.08-6.37-.24-12.86,1.73.07,2.85.1,3.36.1.7,0,1.86-.03,3.46-.1Z" style="fill:#1d1d1b;"/><path d="m1242.14,655.58c0,3.71-1.1,6.91-3.29,9.6-2.19,2.69-4.89,4.03-8.09,4.03-1.47,0-2.71-.26-3.72-.77s-1.93-1.39-2.76-2.64l-.14.05c.1,1.22.14,3.18.14,5.9,0,1.28.05,3.22.14,5.81-1.15-.06-2.27-.1-3.36-.1s-2.08.03-3.07.1c.13-3.49.19-10.16.19-20.02,0-7.52-.08-12.16-.24-13.92.67.07,1.62.1,2.83.1,1.06,0,1.95-.03,2.69-.1.16,1.38.24,2.69.24,3.94h.14c1.47-3.23,4.03-4.85,7.68-4.85,3.39,0,6.01,1.12,7.85,3.36,1.84,2.24,2.76,5.41,2.76,9.5Zm-6.14.1c0-4.58-1.89-6.86-5.66-6.86-2.85,0-4.91.69-6.19,2.06.13,1.15.19,2.83.19,5.04s-.08,3.97-.24,5.47c1.47,1.15,3.42,1.73,5.86,1.73,1.86,0,3.33-.67,4.42-2.02,1.09-1.34,1.63-3.15,1.63-5.42Z" style="fill:#1d1d1b;"/><path d="m1262.34,643.78c-.16,1.6-.24,3.79-.24,6.58-.67-.26-1.71-.38-3.12-.38-1.28,0-2.3.21-3.07.62-.77.42-1.5,1.14-2.21,2.16.13,2.05.19,4,.19,5.86,0,4.26.08,7.5.24,9.74-1.28-.06-2.43-.1-3.46-.1-1.15,0-2.21.03-3.17.1.13-2.82.19-6.51.19-11.09,0-5.73-.08-10.27-.24-13.63,1.54.07,2.48.1,2.83.1,1.06,0,1.9-.03,2.54-.1.16.99.24,2.45.24,4.37l.14.1c.93-1.86,1.83-3.1,2.71-3.72.88-.62,2.21-.94,4.01-.94.93,0,1.73.11,2.4.34Z" style="fill:#1d1d1b;"/><path d="m1273.14,638.78c-1.54-.06-2.85-.1-3.94-.1-.83,0-2.14.03-3.94.1.03-.83.05-1.84.05-3.02,0-1.31-.03-2.29-.1-2.93,1.66.06,2.98.1,3.94.1,1.06,0,2.38-.03,3.98-.1-.06,1.54-.1,2.51-.1,2.93,0,1.15.03,2.16.1,3.02Zm-.48,4.85c-.19,5.63-.29,9.92-.29,12.86,0,1.02,0,2.19.02,3.5.02,1.31.04,2.79.07,4.44.03,1.65.05,2.95.05,3.91-1.66-.06-2.77-.1-3.31-.1-.48,0-1.55.03-3.22.1,0-1.41.02-3.46.05-6.14.03-2.69.05-4.59.05-5.71,0-2.08-.08-6.37-.24-12.86,1.73.07,2.85.1,3.36.1.7,0,1.86-.03,3.46-.1Z" style="fill:#1d1d1b;"/><path d="m1300.12,643.63c-.16.67-.38,1.4-.67,2.18s-.59,1.59-.91,2.42c-.32.83-.88,2.3-1.68,4.39-.8,2.1-1.6,4.23-2.4,6.41-1.79,4.58-2.96,7.68-3.5,9.31-.7-.06-1.58-.1-2.64-.1-1.22,0-2.19.03-2.93.1-.83-2.69-1.98-5.79-3.46-9.31-.8-2.08-1.62-4.22-2.45-6.41-.83-2.19-1.41-3.69-1.73-4.49-.32-.8-.62-1.6-.89-2.4-.27-.8-.47-1.5-.6-2.11.45.07,1.65.1,3.6.1,1.22,0,2.33-.03,3.36-.1.54,2.3,1.26,4.75,2.16,7.34,1.63,4.8,2.56,8.51,2.78,11.14h.19c.22-2.56,1.13-6.26,2.74-11.09,1.02-3.07,1.74-5.54,2.16-7.39,1.12.07,2.24.1,3.36.1,1.57,0,2.74-.03,3.5-.1Z" style="fill:#1d1d1b;"/><path d="m1323.11,668.35c-1.02-.06-1.86-.1-2.5-.1-.26,0-1.15.03-2.69.1-.32-1.57-.5-2.88-.53-3.94h-.19c-.51,1.6-1.28,2.78-2.3,3.55-1.02.77-2.46,1.15-4.32,1.15-2.53,0-4.52-.66-5.98-1.97-1.46-1.31-2.18-3.15-2.18-5.52,0-2.85,1.05-4.88,3.14-6.1,2.1-1.22,5.35-1.82,9.77-1.82h1.2v-1.25c0-1.47-.34-2.46-1.03-2.95s-1.99-.74-3.91-.74c-3.68,0-6.22.91-7.63,2.74l-.1-.1c-.13-2.3-.34-3.97-.62-4.99,1.7-2.4,4.62-3.6,8.78-3.6,3.65,0,6.31.8,7.99,2.4,1.68,1.6,2.52,4.13,2.52,7.58v9.07c0,2.11.19,4.27.58,6.48Zm-6.58-6.48v-4.18c-.26.06-1.54.16-3.84.29-1.6.1-2.74.37-3.43.82-.69.45-1.03,1.18-1.03,2.21s.29,1.71.89,2.16c.59.45,1.54.67,2.86.67,2.11,0,3.63-.66,4.56-1.97Z" style="fill:#1d1d1b;"/><path d="m1347.73,645.6c-.35,1.12-.61,2.99-.77,5.62-.86-.86-1.75-1.46-2.66-1.78-.91-.32-2.1-.48-3.58-.48-2.21,0-3.92.62-5.14,1.85-1.22,1.23-1.82,2.9-1.82,5.02s.62,3.85,1.85,5.11c1.23,1.26,2.94,1.9,5.11,1.9,2.46,0,4.5-.67,6.1-2.02,0,1.95.18,3.81.53,5.57-1.76,1.7-4.08,2.54-6.96,2.54-3.84,0-6.91-1.24-9.22-3.72-2.3-2.48-3.46-5.64-3.46-9.48s1.16-6.82,3.48-9.24c2.32-2.42,5.43-3.62,9.34-3.62,3.3,0,5.7.91,7.2,2.74Z" style="fill:#1d1d1b;"/><path d="m1374.9,643.63c-.16.61-.5,1.58-1.03,2.93-.53,1.34-1.49,3.74-2.88,7.2-1.39,3.46-2.7,6.75-3.91,9.89-2.85,7.23-4.62,11.87-5.33,13.92-1.02-.06-2.13-.1-3.31-.1-1.6,0-2.96.03-4.08.1.83-1.6,1.76-3.55,2.78-5.86.96-2.21,1.76-3.82,2.4-4.85-.26-.54-.82-1.8-1.7-3.77-.88-1.97-1.75-3.9-2.62-5.78-2.3-4.99-3.79-8.3-4.46-9.94s-1.09-2.88-1.25-3.74c.48.07,1.66.1,3.55.1,1.28,0,2.45-.03,3.5-.1.61,1.82,1.7,4.74,3.26,8.74,1.31,3.52,2.19,6.54,2.64,9.07h.14c.35-2.62,1.15-5.65,2.4-9.07,1.44-3.9,2.42-6.82,2.93-8.74.93.07,2.13.1,3.6.1,1.22,0,2.33-.03,3.36-.1Z" style="fill:#1d1d1b;"/><rect width="1920" height="1080" style="fill:#1d1d1b; opacity:.07;"/></svg>