<?xml version="1.0" encoding="UTF-8"?><svg id="a" xmlns="http://www.w3.org/2000/svg" viewBox="0 0 276.72 141.73"><rect width="276.72" height="141.73"/><rect x="6.75" y="6.75" width="128.23" height="128.24" style="fill:#fff;"/><path d="M33.78,107.99h20.25V60.74h-20.25v47.24Zm10.08-75.59c-6.34,0-11.47,5.14-11.47,11.47s5.14,11.47,11.47,11.47,11.47-5.14,11.47-11.47-5.14-11.47-11.47-11.47Zm43.87,1.35v20.25h20.24v-20.25h-20.24Zm-27,74.24h20.25V33.74h-20.25V107.99Zm27-27h20.24v-20.25h-20.24v20.25Z"/><rect x="141.73" y="6.75" width="128.23" height="128.24" style="fill:#fff;"/><g><g><path d="M164.07,33.85c6.18,0,10.79,2.6,10.79,9.73,0,6.75-4.74,9.57-10.79,9.57h-5v-19.3h5Zm-1.31,16.34h.97c4.06,0,7.31-1.69,7.31-6.64,0-5.2-3.25-6.66-7.31-6.66h-.97v13.3Z"/><path d="M178.33,33.85h10.82v3.21h-7.18v4.65h6.6v3.12h-6.6v5.09h7.26v3.23h-10.9v-19.3Z"/><path d="M202.83,37.36c-1.44-.61-2.59-.83-3.72-.83-1.94,0-3.17,.86-3.17,2.18,0,1.19,.6,1.94,3.3,2.96,3.41,1.27,4.85,2.93,4.85,5.78,0,3.71-2.67,6.03-6.89,6.03-1.75,0-3.33-.28-4.85-.83l.34-3.4c1.57,.8,3.01,1.11,4.3,1.11,1.94,0,3.33-.86,3.33-2.41,0-1.47-.76-2.24-3.54-3.32-3.25-1.24-4.64-2.79-4.64-5.53,0-3.43,2.65-5.59,6.55-5.59,1.62,0,2.99,.19,4.43,.69l-.29,3.15Z"/><path d="M207.38,33.85h3.69v19.3h-3.69v-19.3Z"/><path d="M229.71,37.86c-1.13-.61-2.96-1.08-4.85-1.08-3.88,0-6.39,2.57-6.39,6.66s2.28,6.69,6.31,6.69c.76,0,1.57-.08,2.15-.28v-4.81h-3.9v-3.1h7.41v10.37c-1.96,.72-4.06,1.02-6.16,1.02-5.61,0-9.77-3.76-9.77-9.93s4.03-9.76,10.37-9.76c1.81,0,3.59,.19,5.08,.75l-.26,3.46Z"/><path d="M246.37,33.85h3.33v19.3h-4.66l-4.69-9.46c-.94-1.91-2.15-4.67-2.65-5.94h-.05c.08,1.19,.13,4.73,.13,6.39v9.01h-3.33v-19.3h4.92l4.61,9.54c.68,1.38,1.94,4.29,2.49,5.64h.05c-.08-1.41-.16-5.14-.16-7.08v-8.1Z"/></g><g><path d="M175.65,80.61h-4.01l-1.6-4.45h-7.62l-1.6,4.45h-3.8l7.18-19.3h4.16l7.28,19.3Zm-8.12-11.89c-.39-1.16-1.02-3.37-1.26-4.37h-.05c-.26,.99-.94,3.21-1.34,4.37l-1.52,4.51h5.68l-1.52-4.51Z"/><path d="M188.89,67.69c-.18-.88-.55-2.57-.68-3.62h-.05c-.13,1.05-.42,2.71-.6,3.62l-2.73,12.91h-4.66l-5.06-19.3h3.96l2.65,11.56c.13,.63,.71,3.43,.87,4.73h.05c.18-1.3,.71-4.09,.84-4.73l2.38-11.56h4.9l2.52,11.56c.16,.66,.65,3.46,.84,4.73h.05c.18-1.27,.71-4.01,.87-4.73l2.62-11.56h3.67l-4.9,19.3h-4.64l-2.88-12.91Z"/><path d="M219.28,80.61h-4.01l-1.6-4.45h-7.62l-1.6,4.45h-3.8l7.18-19.3h4.16l7.28,19.3Zm-8.12-11.89c-.39-1.16-1.02-3.37-1.26-4.37h-.05c-.26,.99-.94,3.21-1.34,4.37l-1.52,4.51h5.69l-1.52-4.51Z"/><path d="M221.74,61.31h5.29c4.51,0,7.49,1.02,7.49,5.06,0,2.54-1.44,4.06-3.82,4.56v.05c1.28,.36,1.76,1.13,2.33,2.57l2.83,7.05h-4.06l-2.04-5.47c-.76-2.02-1.1-2.54-3.35-2.54h-.97v8.02h-3.7v-19.3Zm3.7,8.29h1.07c2.91,0,4.22-.77,4.22-2.71,0-2.1-1.57-2.54-4.22-2.54h-1.07v5.25Z"/><path d="M244.04,61.31c6.18,0,10.79,2.6,10.79,9.73,0,6.75-4.74,9.57-10.79,9.57h-5v-19.3h5Zm-1.31,16.34h.97c4.06,0,7.31-1.69,7.31-6.64,0-5.2-3.25-6.66-7.31-6.66h-.97v13.3Z"/></g></g><g><path d="M158.86,93.41l-.38-3.13c1.58-.74,3.46-1.11,5.62-1.11,1.85,0,3.39,.47,4.62,1.4,1.22,.94,1.84,2.29,1.84,4.05,0,1.22-.34,2.43-1.03,3.6-.68,1.18-1.87,2.57-3.56,4.17-1.26,1.19-2.51,2.2-3.75,3.02v.05c1.71-.05,3.57-.08,5.59-.08h3.16v2.94h-12.85v-3.13c3.15-2.56,5.35-4.57,6.6-6.03,1.25-1.47,1.88-2.85,1.88-4.14,0-.97-.31-1.7-.93-2.17s-1.44-.72-2.44-.72c-1.42,0-2.87,.42-4.35,1.27Z"/><path d="M180.65,89.17c4.48,0,6.72,3.23,6.72,9.69s-2.29,9.8-6.86,9.8-6.94-3.2-6.94-9.58c0-3.37,.58-5.86,1.73-7.48,1.15-1.62,2.93-2.43,5.35-2.43Zm-.16,2.78c-2.07,0-3.1,2.27-3.1,6.8s1.04,7.13,3.13,7.13c.99,0,1.75-.59,2.28-1.77,.53-1.18,.8-2.9,.8-5.17,0-4.66-1.04-6.99-3.11-6.99Z"/><path d="M190.19,93.41l-.38-3.13c1.58-.74,3.46-1.11,5.62-1.11,1.85,0,3.39,.47,4.62,1.4,1.22,.94,1.84,2.29,1.84,4.05,0,1.22-.34,2.43-1.03,3.6-.68,1.18-1.87,2.57-3.56,4.17-1.26,1.19-2.51,2.2-3.75,3.02v.05c1.71-.05,3.57-.08,5.59-.08h3.16v2.94h-12.85v-3.13c3.15-2.56,5.35-4.57,6.6-6.03,1.25-1.47,1.88-2.85,1.88-4.14,0-.97-.31-1.7-.93-2.17s-1.44-.72-2.44-.72c-1.42,0-2.87,.42-4.35,1.27Z"/><path d="M205.89,93.41l-.38-3.13c1.58-.74,3.46-1.11,5.62-1.11,1.85,0,3.39,.47,4.62,1.4,1.22,.94,1.84,2.29,1.84,4.05,0,1.22-.34,2.43-1.03,3.6-.68,1.18-1.87,2.57-3.56,4.17-1.26,1.19-2.51,2.2-3.75,3.02v.05c1.71-.05,3.57-.08,5.59-.08h3.16v2.94h-12.85v-3.13c3.15-2.56,5.35-4.57,6.6-6.03,1.25-1.47,1.88-2.85,1.88-4.14,0-.97-.31-1.7-.93-2.17s-1.44-.72-2.44-.72c-1.42,0-2.87,.42-4.35,1.27Z"/></g></svg>